<svg width="24" height="24" viewBox="0 0 24 24" fill="none" xmlns="http://www.w3.org/2000/svg">
<g transform="translate(1.5 6) scale(0.875)">
<path d="M10.7655 13.5955C12 14.3555 13.6364 14.0177 14.4115 12.8074C15.1866 11.597 20.1818 1.80148 18.9474 1.04148C17.7129 0.28148 10.7656 8.81034 9.96172 10.0207C9.1866 11.2311 9.55981 12.8074 10.7655 13.5955Z" fill="#44546F"/>
<path d="M19.8373 3.91258C19.4928 4.22221 19.4354 4.75702 19.7512 5.0948C21.3876 6.92442 22.2775 9.28886 22.2775 11.7096C22.2775 12.1881 22.6507 12.554 23.1388 12.554C23.6268 12.554 24 12.1881 24 11.7096C24 8.86664 22.9378 6.10813 21.0431 3.96888C20.7273 3.6311 20.1818 3.60295 19.8373 3.91258Z" fill="#44546F"/>
<path d="M0.861244 12.5822C1.34928 12.5822 1.72249 12.2163 1.72249 11.7377C1.72249 6.19257 6.3445 1.66074 12 1.66074C13.0335 1.66074 14.0383 1.80148 15.0144 2.1111C15.4737 2.25184 15.9617 1.99851 16.0766 1.54814C16.2201 1.09777 15.9617 0.619257 15.5024 0.506665C14.3541 0.168888 13.177 0 12 0C5.36842 0 0 5.29183 0 11.7659C0 12.1881 0.373206 12.5822 0.861244 12.5822Z" fill="#44546F"/>
</g>
</svg>
