<svg width="49" height="48" viewBox="0 0 49 48" fill="none" xmlns="http://www.w3.org/2000/svg">
<path d="M4 24H46.0175C46.2827 24 46.5371 23.8947 46.7246 23.7071C46.9121 23.5196 47.0175 23.2652 47.0175 23V16C47.0177 15.7373 46.9662 15.4771 46.8658 15.2343C46.7654 14.9915 46.6182 14.7709 46.4325 14.585L32.4325 0.585011C32.246 0.398746 32.0246 0.251173 31.7809 0.150779C31.5372 0.0503837 31.2761 -0.000854054 31.0125 1.07677e-05H7C5.93913 1.07677e-05 4.92172 0.421438 4.17157 1.17158C3.42143 1.92173 3 2.93914 3 4.00001V23C3 23.2652 3.10536 23.5196 3.29289 23.7071C3.48043 23.8947 3.73478 24 4 24ZM31 5.00001L42 16H31V5.00001ZM6 30H2C1.46957 30 0.960859 30.2107 0.585786 30.5858C0.210714 30.9609 0 31.4696 0 32V46C0 46.5304 0.210714 47.0392 0.585786 47.4142C0.960859 47.7893 1.46957 48 2 48H5.8325C10.75 48 14.8875 44.13 15 39.2175C15.029 38.0174 14.8177 36.8237 14.3784 35.7065C13.9391 34.5894 13.2807 33.5714 12.4421 32.7125C11.6035 31.8536 10.6015 31.1711 9.49514 30.7053C8.38879 30.2395 7.20042 29.9997 6 30ZM5.8775 44H4V34H6C6.67313 33.9995 7.33942 34.1349 7.95895 34.3982C8.57848 34.6614 9.13847 35.047 9.60537 35.5319C10.0723 36.0167 10.4365 36.5909 10.6761 37.2199C10.9158 37.8489 11.0259 38.5199 11 39.1925C10.8975 41.8975 8.5875 44 5.88 44H5.8775ZM48.545 42.93C48.8649 43.332 49.0235 43.8389 48.9898 44.3515C48.956 44.8642 48.7324 45.3459 48.3625 45.7025C47.6689 46.4228 46.8383 46.9971 45.9196 47.3916C45.0008 47.7862 44.0124 47.993 43.0125 48C38.6 48 35.0125 43.9625 35.0125 39C35.0125 34.0375 38.6025 30 43.0125 30C44.0124 30.007 45.0008 30.2138 45.9196 30.6084C46.8383 31.003 47.6689 31.5773 48.3625 32.2975C48.7324 32.6541 48.956 33.1358 48.9898 33.6485C49.0235 34.1612 48.8649 34.668 48.545 35.07C48.3642 35.2848 48.1402 35.4592 47.8876 35.5817C47.6349 35.7042 47.3593 35.7721 47.0787 35.7811C46.7981 35.7901 46.5187 35.7398 46.2588 35.6337C45.9988 35.5275 45.7641 35.3679 45.57 35.165C45.2456 34.8074 44.8518 34.5197 44.4125 34.3193C43.9732 34.119 43.4977 34.0104 43.015 34C40.81 34 39.015 36.25 39.015 39C39.015 41.75 40.81 44 43.015 44C43.498 43.9894 43.9738 43.8806 44.4135 43.6804C44.8532 43.4801 45.2475 43.1925 45.5725 42.835C45.7666 42.6322 46.0013 42.4725 46.2613 42.3663C46.5212 42.2602 46.8006 42.21 47.0812 42.2189C47.3618 42.2279 47.6374 42.2958 47.8901 42.4183C48.1427 42.5409 48.3667 42.7152 48.5475 42.93H48.545ZM25 30C20.5875 30 17 34.0375 17 39C17 43.9625 20.5925 48 25 48C29.4075 48 33 43.9625 33 39C33 34.0375 29.4225 30 25 30ZM25 44C22.7925 44 21 41.75 21 39C21 36.25 22.795 34 25 34C27.205 34 29 36.25 29 39C29 41.75 27.215 44 25 44Z" fill="#94A3B8"/>
</svg>
