<svg width="18" height="18" viewBox="0 0 18 18" fill="none" xmlns="http://www.w3.org/2000/svg">
<path d="M7.49908 1.875C7.09424 1.87887 6.72001 1.88616 6.37338 1.89986M10.5009 1.875C10.9057 1.87887 11.28 1.88616 11.6267 1.89986M14.2532 2.34816C14.5725 2.49041 14.8457 2.67505 15.0854 2.91468C15.325 3.15431 15.5096 3.42746 15.6518 3.74676M2.34816 3.74676C2.49042 3.42746 2.67505 3.15431 2.91468 2.91468C3.15431 2.67505 3.42746 2.49041 3.74676 2.34816M16.125 7.49908C16.1211 7.09424 16.1138 6.72001 16.1002 6.37338M16.125 10.5009C16.1211 10.9057 16.1138 11.2799 16.1002 11.6266M15.6518 14.2532C15.5096 14.5725 15.325 14.8457 15.0854 15.0854C14.8457 15.325 14.5725 15.5096 14.2532 15.6518M11.6267 16.1001C11.28 16.1138 10.9057 16.1211 10.5009 16.125M7.49908 16.125C7.09423 16.1211 6.72 16.1138 6.37336 16.1001M3.74676 15.6518C3.42746 15.5096 3.15431 15.325 2.91468 15.0854C2.67505 14.8457 2.49042 14.5725 2.34816 14.2532M1.875 10.5009C1.87887 10.9057 1.88616 11.2799 1.89986 11.6266M1.875 7.49913C1.87887 7.09428 1.88616 6.72003 1.89986 6.37338" stroke="#2E3037" stroke-width="1.5" stroke-linecap="round" stroke-linejoin="round"/>
<path d="M5.25 6H11.25M5.25 9H12.75M5.25 12H9.75" stroke="#2E3037" stroke-width="1.5" stroke-linecap="round" stroke-linejoin="round"/>
</svg>
