<svg width="44" height="52" viewBox="0 0 44 52" fill="none" xmlns="http://www.w3.org/2000/svg">
<path d="M43.415 14.585L29.415 0.585001C29.2291 0.399332 29.0085 0.252104 28.7657 0.151728C28.5229 0.0513516 28.2627 -0.000205972 28 6.18397e-07H4C2.93913 6.18397e-07 1.92172 0.421428 1.17157 1.17157C0.421427 1.92172 0 2.93913 0 4V48C0 49.0609 0.421427 50.0783 1.17157 50.8284C1.92172 51.5786 2.93913 52 4 52H13C13.2652 52 13.5196 51.8946 13.7071 51.7071C13.8946 51.5196 14 51.2652 14 51V46H12.0675C11.5505 46.0082 11.0496 45.8201 10.6659 45.4735C10.2822 45.1269 10.0442 44.6477 10 44.1325C9.98183 43.8589 10.0201 43.5845 10.1125 43.3264C10.2048 43.0682 10.3492 42.8318 10.5368 42.6318C10.7244 42.4318 10.951 42.2726 11.2027 42.1639C11.4545 42.0552 11.7258 41.9994 12 42H14V38H12.0675C11.5505 38.0082 11.0496 37.8201 10.6659 37.4735C10.2822 37.1269 10.0442 36.6477 10 36.1325C9.98183 35.8589 10.0201 35.5845 10.1125 35.3264C10.2048 35.0682 10.3492 34.8318 10.5368 34.6318C10.7244 34.4318 10.951 34.2726 11.2027 34.1639C11.4545 34.0552 11.7258 33.9994 12 34H14V30H12.0675C11.5505 30.0082 11.0496 29.8201 10.6659 29.4735C10.2822 29.1269 10.0442 28.6477 10 28.1325C9.98183 27.8589 10.0201 27.5845 10.1125 27.3264C10.2048 27.0682 10.3492 26.8318 10.5368 26.6318C10.7244 26.4318 10.951 26.2726 11.2027 26.1639C11.4545 26.0552 11.7258 25.9994 12 26H14V24.0675C13.9936 23.5515 14.1826 23.0522 14.5289 22.6697C14.8753 22.2872 15.3534 22.0497 15.8675 22.005C16.1411 21.9868 16.4155 22.0251 16.6736 22.1175C16.9318 22.2098 17.1682 22.3542 17.3682 22.5418C17.5682 22.7294 17.7274 22.956 17.8361 23.2077C17.9448 23.4595 18.0006 23.7308 18 24.005V26.005H19.9325C20.4486 25.9981 20.9483 26.1868 21.3309 26.5332C21.7136 26.8797 21.9508 27.3582 21.995 27.8725C22.0132 28.1461 21.9749 28.4205 21.8825 28.6786C21.7902 28.9368 21.6458 29.1732 21.4582 29.3732C21.2706 29.5732 21.044 29.7324 20.7923 29.8411C20.5405 29.9498 20.2692 30.0056 19.995 30.005H17.995V34.005H19.9275C20.4436 33.9981 20.9433 34.1868 21.3259 34.5332C21.7086 34.8797 21.9458 35.3582 21.99 35.8725C22.0082 36.1461 21.9699 36.4205 21.8775 36.6786C21.7852 36.9368 21.6408 37.1732 21.4532 37.3732C21.2656 37.5732 21.039 37.7324 20.7873 37.8411C20.5355 37.9498 20.2642 38.0056 19.99 38.005H17.99V42.005H19.9225C20.4386 41.9981 20.9383 42.1868 21.3209 42.5332C21.7036 42.8797 21.9408 43.3582 21.985 43.8725C22.0032 44.1461 21.9649 44.4205 21.8725 44.6786C21.7802 44.9368 21.6358 45.1732 21.4482 45.3732C21.2606 45.5732 21.034 45.7324 20.7823 45.8411C20.5305 45.9498 20.2592 46.0056 19.985 46.005H17.985V51.005C17.985 51.2702 18.0904 51.5246 18.2779 51.7121C18.4654 51.8996 18.7198 52.005 18.985 52.005H39.985C41.0459 52.005 42.0633 51.5836 42.8134 50.8334C43.5636 50.0833 43.985 49.0659 43.985 48.005V16C43.9894 15.4716 43.7845 14.9628 43.415 14.585ZM28 16V5L39 16H28Z" fill="#94A3B8"/>
</svg>
