<svg width="20" height="20" viewBox="0 0 20 20" fill="none" xmlns="http://www.w3.org/2000/svg">
<path d="M13.3333 8.33331C14.5 8.33331 15.0834 8.33331 15.5291 8.5604C15.9211 8.76015 16.2398 9.07881 16.4395 9.47081C16.6666 9.91648 16.6666 10.4999 16.6666 11.6666V14.1666C16.6666 16.1308 16.6666 17.1129 16.0564 17.7231C15.4462 18.3333 14.4641 18.3333 12.4999 18.3333H7.49992C5.53574 18.3333 4.55364 18.3333 3.94344 17.7231C3.33325 17.1129 3.33325 16.1308 3.33325 14.1666V11.6666C3.33325 10.4999 3.33325 9.91648 3.56032 9.47081C3.76006 9.07881 4.07877 8.76015 4.47077 8.5604C4.91642 8.33331 5.49981 8.33331 6.66659 8.33331" stroke="#2E3037" stroke-width="1.5" stroke-linecap="round" stroke-linejoin="round"/>
<path d="M10 13.3333V3.33331" stroke="#2E3037" stroke-width="1.5" stroke-linecap="round" stroke-linejoin="round"/>
<path d="M12.5 4.99998C12.5 4.99998 10.6587 2.50001 10 2.5C9.34117 2.49999 7.5 5 7.5 5" stroke="#2E3037" stroke-width="1.5" stroke-linecap="round" stroke-linejoin="round"/>
</svg>
