<svg width="115" height="201" viewBox="0 -8 115 201" fill="none" xmlns="http://www.w3.org/2000/svg">
<path d="M57.5013 155.549C47.1293 155.549 38.7312 163.922 38.7312 174.287C38.7312 184.628 47.13 193 57.5013 193C67.8733 193 76.2967 184.627 76.2967 174.287C76.2967 163.947 67.8727 155.549 57.5013 155.549ZM67.2154 132.297C67.2154 137.643 62.8643 141.981 57.5013 141.981C52.1384 141.981 47.7873 137.643 47.7873 132.297V122.966C47.7873 114.416 50.1905 106.447 54.567 99.7128L54.8959 99.2336C59.247 92.7019 65.47 87.4058 73.1098 83.9756L73.5651 83.7739C80.0916 80.7475 85.6319 75.9051 89.5272 69.9034L89.8308 69.4746C93.4482 63.6994 95.5732 56.7894 95.5732 49.3241C95.5732 38.8328 91.3233 29.3247 84.4422 22.4649C77.5611 15.6052 68.0242 11.368 57.5006 11.368C46.9771 11.368 37.4399 15.6049 30.5591 22.4649C23.6783 29.325 19.4281 38.8328 19.4281 49.3241C19.4281 54.6706 15.077 59.0084 9.71404 59.0084C4.35111 59.0084 0 54.6706 0 49.3241C0 33.5367 6.45069 19.2117 16.848 8.82168C27.2958 -1.56896 41.6641 -8 57.4999 -8C73.3358 -8 87.7048 -1.56903 98.1267 8.7965C108.549 19.2123 115 33.5367 115 49.3241C115 60.4714 111.737 70.9376 106.146 79.7897L105.766 80.4202C99.8976 89.4486 91.5244 96.7622 81.6077 101.327L81.0764 101.605C76.8519 103.496 73.4367 106.371 71.0839 109.851L70.9069 110.129C68.5542 113.76 67.2387 118.174 67.2387 122.94V132.272L67.2154 132.297Z" fill="#1F64FF" fill-opacity="0.24"/>
</svg>
