<svg width="253" height="190" viewBox="0 -5 253 190" fill="none" xmlns="http://www.w3.org/2000/svg">
<path d="M158.126 -5C132.961 -5 108.836 5.00887 91.0363 22.8216C73.2474 40.6453 63.2515 64.8027 63.2515 90C63.2515 115.197 73.2471 139.355 91.0363 157.178C108.836 174.991 132.962 185 158.126 185C183.29 185 207.416 174.991 225.215 157.178C243.004 139.355 253 115.197 253 90C252.977 64.8137 242.97 40.6679 225.181 22.8563C207.393 5.04477 183.278 -4.97742 158.126 -5ZM158.126 175.953C135.356 175.953 113.523 166.894 97.4292 150.778C81.3344 134.662 72.2875 112.801 72.2875 90.0009C72.2875 67.2008 81.3344 45.3388 97.4292 29.2238C113.524 13.1077 135.356 4.04881 158.126 4.04881C180.896 4.04881 202.729 13.1077 218.822 29.2238C234.917 45.3399 243.964 67.2008 243.964 90.0009C243.941 112.79 234.883 134.64 218.788 150.743C202.705 166.859 180.884 175.93 158.126 175.953Z" fill="#1F64FF" fill-opacity="0.1"/>
<path d="M158.126 13.0953C137.762 13.0953 118.221 21.193 103.822 35.6238C89.4101 50.0436 81.3234 69.6082 81.3234 89.9994C81.3234 110.391 89.4104 129.957 103.822 144.375C118.223 158.806 137.762 166.904 158.126 166.904C178.49 166.904 198.03 158.806 212.429 144.375C226.841 129.955 234.928 110.391 234.928 89.9994C234.905 69.6082 226.807 50.0653 212.407 35.6469C198.006 21.2272 178.49 13.1182 158.126 13.0953ZM158.126 157.858C140.156 157.858 122.92 150.71 110.203 137.987C97.4971 125.252 90.3588 107.995 90.3588 90.0009C90.3588 72.0069 97.4971 54.7483 110.203 42.015C122.921 29.2919 140.156 22.1441 158.126 22.1441C176.096 22.1441 193.332 29.2919 206.048 42.015C218.754 54.7495 225.893 72.0069 225.893 90.0009C225.87 107.994 218.732 125.242 206.026 137.964C193.319 150.687 176.093 157.835 158.126 157.858Z" fill="#1F64FF" fill-opacity="0.1"/>
<path d="M194.268 85.4765H170.843C169.477 81.6426 166.472 78.6341 162.644 77.2658V35.7132C162.644 33.2138 160.622 31.1894 158.126 31.1894C155.63 31.1894 153.608 33.2138 153.608 35.7132V77.2658C149.226 78.8039 145.939 82.4909 144.911 87.026C143.883 91.5724 145.25 96.3223 148.537 99.6024C151.812 102.893 156.556 104.262 161.096 103.233C165.626 102.204 169.307 98.9124 170.844 94.5244H194.269C196.765 94.5244 198.787 92.5 198.787 90.0006C198.787 87.5012 196.765 85.4765 194.268 85.4765ZM158.126 94.5241C156.296 94.5241 154.647 93.4271 153.947 91.7307C153.258 90.0455 153.642 88.1003 154.929 86.7998C156.228 85.5105 158.171 85.126 159.854 85.8158C161.548 86.517 162.644 88.1682 162.644 90.0003C162.644 92.4997 160.622 94.5241 158.126 94.5241Z" fill="#1F64FF" fill-opacity="0.1"/>
<path d="M54.2141 89.9988C54.2141 88.8 53.7397 87.6465 52.8926 86.7981C52.0456 85.9498 50.8935 85.4749 49.6962 85.4749H4.51784C2.02173 85.4749 0 87.4993 0 89.9987C0 92.4982 2.02173 94.5226 4.51784 94.5226H49.6962C50.8934 94.5226 52.0455 94.0476 52.8926 93.1994C53.7398 92.3511 54.2141 91.1977 54.2141 89.9988Z" fill="#1F64FF" fill-opacity="0.1"/>
<path d="M18.0714 67.3812H53.1298C55.6259 67.3812 57.6477 65.3568 57.6477 62.8573C57.6477 60.3579 55.6259 58.3335 53.1298 58.3335H18.0714C15.5753 58.3335 13.5536 60.3579 13.5536 62.8573C13.5536 65.3568 15.5753 67.3812 18.0714 67.3812Z" fill="#1F64FF" fill-opacity="0.1"/>
<path d="M31.6264 40.2353H64.2907C66.7868 40.2353 68.8085 38.2109 68.8085 35.7115C68.8085 33.2121 66.7868 31.1877 64.2907 31.1877H31.6264C29.1303 31.1877 27.1085 33.2121 27.1085 35.7115C27.1085 38.2109 29.1303 40.2353 31.6264 40.2353Z" fill="#1F64FF" fill-opacity="0.1"/>
<path d="M58.7305 13.0953H86.5153C89.0114 13.0953 91.0331 11.0709 91.0331 8.57147C91.0331 6.07206 89.0114 4.04765 86.5153 4.04765H58.7305C56.2344 4.04765 54.2127 6.07206 54.2127 8.57147C54.2127 11.0709 56.2344 13.0953 58.7305 13.0953Z" fill="#1F64FF" fill-opacity="0.1"/>
<path d="M53.1298 112.617H31.6249C29.1288 112.617 27.1071 114.641 27.1071 117.14C27.1071 119.64 29.1288 121.664 31.6249 121.664H53.1298C55.6259 121.664 57.6477 119.64 57.6477 117.14C57.6477 114.641 55.6259 112.617 53.1298 112.617Z" fill="#1F64FF" fill-opacity="0.1"/>
<path d="M68.8071 144.285C68.8071 143.086 68.3327 141.932 67.4856 141.084C66.6385 140.236 65.4865 139.761 64.2892 139.761H18.0728C15.5767 139.761 13.555 141.785 13.555 144.285C13.555 146.784 15.5767 148.808 18.0728 148.808H64.2892C65.4864 148.808 66.6384 148.333 67.4856 147.485C68.3327 146.637 68.8071 145.484 68.8071 144.285Z" fill="#1F64FF" fill-opacity="0.1"/>
<path d="M86.517 166.902H58.7322C56.2361 166.902 54.2144 168.927 54.2144 171.426C54.2144 173.926 56.2361 175.95 58.7322 175.95H86.517C89.0131 175.95 91.0348 173.926 91.0348 171.426C91.0348 168.927 89.0131 166.902 86.517 166.902Z" fill="#1F64FF" fill-opacity="0.1"/>
</svg>
