<svg width="148" height="185" viewBox="0 0 148 185" fill="none" xmlns="http://www.w3.org/2000/svg">
<path d="M49.3333 71.4766C60.6971 71.4766 69.9009 62.0638 69.9009 50.4532V0H131.557C140.638 0 148 7.5295 148 16.8202V168.18C148 177.47 140.638 185 131.557 185H16.4433C7.3624 185 0 177.47 0 168.18V71.4766H49.3333ZM28.7766 151.363H119.223C121.495 151.363 123.337 149.48 123.337 147.156C123.337 144.833 121.495 142.953 119.223 142.953H28.7766C26.5046 142.953 24.6631 144.833 24.6631 147.156C24.6631 149.48 26.5046 151.363 28.7766 151.363ZM28.7766 126.137H119.223C121.495 126.137 123.337 124.257 123.337 121.93C123.337 119.606 121.495 117.727 119.223 117.727H28.7766C26.5046 117.727 24.6631 119.606 24.6631 121.93C24.6631 124.257 26.5046 126.137 28.7766 126.137ZM28.7766 100.91H119.223C121.495 100.91 123.337 99.0305 123.337 96.7069C123.337 94.3796 121.495 92.5 119.223 92.5H28.7766C26.5046 92.5 24.6631 94.3796 24.6631 96.7069C24.6631 99.0305 26.5046 100.91 28.7766 100.91Z" fill="#1F64FF" fill-opacity="0.1"/>
<path d="M49.3333 63.0776L7.52881 63.0517L61.6848 7.6701V50.4532C61.6667 57.4018 56.1313 63.0517 49.3333 63.0776Z" fill="#1F64FF" fill-opacity="0.1"/>
</svg>
