<svg width="36" height="26" viewBox="0 0 36 26" fill="none" xmlns="http://www.w3.org/2000/svg">
<path fill-rule="evenodd" clip-rule="evenodd" d="M22.872 0C15.6266 0 9.74402 5.82521 9.74402 13C9.74402 20.1748 15.6266 26 22.872 26C30.1174 26 36 20.1748 36 13C36 5.82521 30.1174 0 22.872 0ZM22.872 1.81395C29.1063 1.81395 34.1682 6.82651 34.1682 13C34.1682 19.1735 29.1063 24.186 22.872 24.186C16.6377 24.186 11.5758 19.1735 11.5758 13C11.5758 6.82651 16.6377 1.81395 22.872 1.81395ZM22.872 2.86967C17.2264 2.86967 12.6419 7.40819 12.6419 13C12.6419 18.5918 17.2264 23.1303 22.872 23.1303C28.5189 23.1303 33.1033 18.5918 33.1033 13C33.1033 7.40819 28.5189 2.86967 22.872 2.86967ZM23.7879 13.8828V8.55944C23.7879 8.05879 23.3776 7.65246 22.872 7.65246C22.3664 7.65246 21.9561 8.05879 21.9561 8.55944V13.364L18.8261 15.1538C18.389 15.4041 18.2387 15.9592 18.4915 16.3933C18.7443 16.8262 19.3049 16.975 19.7421 16.7247L23.3251 14.6761C23.33 14.6737 23.3348 14.6713 23.3385 14.6688C23.479 14.5866 23.5889 14.4729 23.6658 14.3411C23.7415 14.2105 23.7867 14.0593 23.7879 13.8985C23.7879 13.8937 23.7879 13.8876 23.7879 13.8828Z" fill="#1F64FF"/>
<path fill-rule="evenodd" clip-rule="evenodd" d="M0.915906 6.65116H9.46681C9.97239 6.65116 10.3827 6.24484 10.3827 5.74419C10.3827 5.24353 9.97239 4.83721 9.46681 4.83721H0.915906C0.410326 4.83721 0 5.24353 0 5.74419C0 6.24484 0.410326 6.65116 0.915906 6.65116Z" fill="#1F64FF"/>
<path fill-rule="evenodd" clip-rule="evenodd" d="M0.915906 21.1628H9.46681C9.97239 21.1628 10.3827 20.7565 10.3827 20.2558C10.3827 19.7552 9.97239 19.3488 9.46681 19.3488H0.915906C0.410326 19.3488 0 19.7552 0 20.2558C0 20.7565 0.410326 21.1628 0.915906 21.1628Z" fill="#1F64FF"/>
<path fill-rule="evenodd" clip-rule="evenodd" d="M0.915906 10.2791H8.24316C8.74874 10.2791 9.15906 9.87274 9.15906 9.37209C9.15906 8.87144 8.74874 8.46512 8.24316 8.46512H0.915906C0.410326 8.46512 0 8.87144 0 9.37209C0 9.87274 0.410326 10.2791 0.915906 10.2791Z" fill="#1F64FF"/>
<path fill-rule="evenodd" clip-rule="evenodd" d="M0.915906 17.5349H8.24316C8.74874 17.5349 9.15906 17.1286 9.15906 16.6279C9.15906 16.1273 8.74874 15.7209 8.24316 15.7209H0.915906C0.410326 15.7209 0 16.1273 0 16.6279C0 17.1286 0.410326 17.5349 0.915906 17.5349Z" fill="#1F64FF"/>
<path fill-rule="evenodd" clip-rule="evenodd" d="M0.915906 13.907H7.60935C8.11493 13.907 8.52526 13.5007 8.52526 13C8.52526 12.4993 8.11493 12.093 7.60935 12.093H0.915906C0.410326 12.093 0 12.4993 0 13C0 13.5007 0.410326 13.907 0.915906 13.907Z" fill="#1F64FF"/>
</svg>
