<svg width="23" height="28" viewBox="0 0 23 28" fill="none" xmlns="http://www.w3.org/2000/svg">
<path d="M7.66667 10.8181C9.43265 10.8181 10.863 9.39344 10.863 7.63616V0H20.4446C21.8558 0 23 1.1396 23 2.54576V25.4542C23 26.8604 21.8558 28 20.4446 28H2.55537C1.14416 28 0 26.8604 0 25.4542V10.8181H7.66667ZM4.47204 22.909H18.528C18.8811 22.909 19.1672 22.624 19.1672 22.2723C19.1672 21.9206 18.8811 21.6362 18.528 21.6362H4.47204C4.11895 21.6362 3.83277 21.9206 3.83277 22.2723C3.83277 22.624 4.11895 22.909 4.47204 22.909ZM4.47204 19.091H18.528C18.8811 19.091 19.1672 18.8065 19.1672 18.4542C19.1672 18.1026 18.8811 17.8181 18.528 17.8181H4.47204C4.11895 17.8181 3.83277 18.1026 3.83277 18.4542C3.83277 18.8065 4.11895 19.091 4.47204 19.091ZM4.47204 15.2729H18.528C18.8811 15.2729 19.1672 14.9884 19.1672 14.6367C19.1672 14.2845 18.8811 14 18.528 14H4.47204C4.11895 14 3.83277 14.2845 3.83277 14.6367C3.83277 14.9884 4.11895 15.2729 4.47204 15.2729Z" fill="#1F64FF"/>
<path d="M7.66667 9.54688L1.17002 9.54296L9.58615 1.16088V7.63616C9.58333 8.68784 8.72311 9.54296 7.66667 9.54688Z" fill="#1F64FF"/>
</svg>
