<svg preserveAspectRatio="none" width="100%" height="100%" overflow="visible" style="display: block;" viewBox="0 0 1222 617" fill="none" xmlns="http://www.w3.org/2000/svg">
<g id="Frame 462">
<g id="Vector">
<mask id="path-1-inside-1_0_4" fill="white">
<path d="M416.408 0H443.867C449.076 2.54237 454.133 4.00847 459.183 6.37526C476.531 14.5043 488.429 26.097 494.202 44.6658C496.196 51.0797 497.807 55.5073 498.77 62.4963C563.038 61.5577 596.263 106.288 637.629 147.276C658.225 167.684 676.511 175.519 703.813 182.311C711.714 181.78 716.807 181.59 724.694 181.907C728.035 160.927 735.466 145.143 753.113 132.311C767.529 121.818 785.506 117.447 803.129 120.15C819.701 122.844 836.911 131.45 846.803 145.318C850.32 150.201 853.321 155.435 855.76 160.937C867.133 187.296 856.162 180.326 883.783 183.257C910.233 186.063 941.093 204.693 959.529 223.605C986.336 251.341 1009.1 282.36 1046.86 295.893C1059.16 300.314 1073.11 301.326 1086.1 302.995C1097.86 235.079 1177.55 217.542 1214.08 273.404C1217.53 278.692 1219.17 284.201 1222 289.38V327.698C1221.12 328.876 1219.16 333.402 1218.55 334.949C1200.52 380.352 1140.43 391.831 1106.78 356.483C1094.72 343.823 1090.05 331.696 1085.92 314.862C1079.27 315.308 1073.76 314.431 1067.15 313.631C1059.91 314.974 1054.62 317.289 1047.32 318.339C986.695 341.268 966.5 401.76 908.113 425.212C892.798 431.363 875.718 432.223 859.569 435.393C858.574 467.3 831.4 492.892 800.22 495.677C761.402 499.144 729.695 473.293 725.982 434.455C655.218 436.074 640.949 470.311 593.353 514.389C566.587 539.176 536.175 555.836 498.684 554.329C497.089 564.84 494.656 574.117 489.385 583.444C480.55 598.75 466.018 609.938 448.964 614.565C431.291 619.397 412.421 616.977 396.541 607.84C379.94 598.264 367.633 580.266 364.637 561.32C364.106 557.969 363.601 554.882 362.716 551.593C354.236 549.935 343.605 548.894 335.626 546.114C241.617 513.362 253.451 348.7 162.941 316.267C154.633 314.694 145.367 315.441 136.517 314.523C130.29 372.922 63.3656 397.948 20.8331 357.717C-22.8615 316.387 6.68528 240.729 67.6422 240.323C86.2699 240.21 104.177 247.515 117.414 260.624C128.791 272.015 135.8 286.663 135.81 302.887C143.252 301.834 150.399 301.515 157.884 301.096C162.113 299.958 166.367 297.226 170.151 295.055C231.72 259.74 251.268 142.094 303.923 88.7253C320.197 72.2315 340.28 62.6194 363.553 62.4479C364.439 41.2209 379.393 18.2345 398.026 8.34965C404.2 5.07499 410.365 4.09013 416.408 0ZM605.464 244.245C585.681 193.89 568.234 100.311 513.763 74.5707C510.947 73.24 503.125 70.9806 499.849 70.1402C493.352 93.331 488.045 112.774 465.516 124.767C417.148 150.514 370.527 121.48 362.797 70.2327C329.198 75.5713 316.239 85.9863 295.914 112.854C259.058 161.571 230.595 270.871 177.677 301.154C190.034 302.949 224.979 302.088 239.764 302.082L363.168 302.148C364.222 288.209 368.909 276.038 377.797 265.14C389.334 251.076 406.056 242.264 424.177 240.696C442.689 238.998 461.121 244.694 475.448 256.541C488.545 267.47 498.208 285.84 499.723 302.705C510.343 301.158 521.094 300.418 531.536 297.677C560.319 290.117 586.573 266.521 605.464 244.245ZM183.039 315.363C175.589 315.137 170.345 314.93 162.941 316.267C253.451 348.7 241.617 513.362 335.626 546.114C343.605 548.894 354.236 549.935 362.716 551.593C363.601 554.882 364.106 557.969 364.637 561.32C367.633 580.266 379.94 598.264 396.541 607.84C412.421 616.977 431.291 619.397 448.964 614.565C466.018 609.938 480.55 598.75 489.385 583.444C494.656 574.117 497.089 564.84 498.684 554.329C536.175 555.836 566.587 539.176 593.353 514.389C640.949 470.311 655.218 436.074 725.982 434.455C729.695 473.293 761.402 499.144 800.22 495.677C831.4 492.892 858.574 467.3 859.569 435.393C875.718 432.223 892.798 431.363 908.113 425.212C966.5 401.76 986.695 341.268 1047.32 318.339C1048.31 313.977 1048.35 314.274 1051.55 310.873L1045.45 309.946C1031.05 303.538 1016.26 296.575 1004.01 286.736C969.134 258.733 944.316 216.287 900.842 200.773C890.555 197.101 873.184 194.615 861.811 192.636C853.826 271.436 742.277 283.206 724.681 194.919C714.356 193.793 711.939 194.383 701.989 197.305C693.724 196.948 688.044 197.634 680.665 202.389C650.98 214.627 638.995 229.865 617.092 251.685C614.136 254.439 612.285 256.092 609.83 259.273C592.863 277.251 581.656 288.794 559.186 300.749C553.593 303.725 543.74 306.957 539.307 309.629L519.29 313.887C514.673 314.034 503.95 314.133 500.134 316.053C497.792 321.839 496.788 327.369 494.651 333.168C487.979 351.7 474.859 364.072 456.892 371.708C439.02 379.302 422.504 379.289 404.622 371.876C379.773 361.577 365.811 340.475 362.597 314.292C349.99 315.946 323.701 315.279 310.236 315.276L216.649 315.237C211.433 315.238 186.354 314.455 183.039 315.363ZM535.499 76.8814C570.935 109.729 585.577 155.041 600.336 199.89C603.918 210.777 609.509 227.437 611.872 238.062C615.92 235.003 628.06 221.947 632.571 217.565C648.242 202.346 664.379 194.805 684.139 186.397L683.522 186.052C679.359 183.765 677.763 184.287 674.037 182.643C665.128 178.711 654.721 173.455 646.875 167.713C637.664 160.972 629.209 152.022 621.081 144.046C590.373 113.913 576.566 93.2758 535.499 76.8814ZM437.811 120.145C467.263 116.293 487.961 89.2117 483.949 59.7756C479.938 30.3395 452.749 9.78608 423.341 13.9587C394.159 18.0992 373.801 45.0389 377.782 74.2488C381.762 103.459 408.586 123.966 437.811 120.145ZM60.4466 256.912C32.0714 261.376 12.6143 287.905 16.8788 316.316C21.1431 344.727 47.5307 364.372 75.9655 360.305C104.683 356.198 124.561 329.486 120.255 300.793C115.948 272.101 89.1031 252.405 60.4466 256.912ZM1163.54 360.263C1191.82 355.864 1211.31 329.522 1207.24 301.18C1203.18 272.838 1177.06 253.045 1148.68 256.784C1130.03 259.243 1114.14 271.541 1107.06 288.984C1100 306.428 1102.86 326.323 1114.55 341.074C1126.24 355.825 1144.94 363.154 1163.54 360.263ZM797.883 239.818C826.455 237.237 847.594 212.087 845.228 183.492C842.861 154.896 817.874 133.565 789.266 135.718C760.356 137.895 738.752 163.21 741.145 192.109C743.536 221.008 769.008 242.427 797.883 239.818ZM437.877 360.27C456.473 357.725 472.27 345.385 479.242 327.955C486.214 310.524 483.287 290.691 471.577 276.019C459.867 261.346 441.181 254.097 422.641 257.034C394.396 261.509 375.017 287.894 379.192 316.191C383.368 344.488 409.543 364.148 437.877 360.27Z"/>
</mask>
<path d="M908.113 425.212L908.3 425.676H908.3L908.113 425.212ZM859.569 435.393L859.472 434.902L859.081 434.979L859.069 435.377L859.569 435.393ZM800.219 495.677L800.264 496.175V496.175L800.219 495.677ZM725.982 434.455L726.48 434.407L726.436 433.944L725.971 433.955L725.982 434.455ZM593.353 514.389L593.692 514.756V514.756L593.353 514.389ZM498.684 554.329L498.704 553.829L498.256 553.811L498.189 554.254L498.684 554.329ZM489.385 583.444L489.818 583.694L489.82 583.69L489.385 583.444ZM448.964 614.565L448.833 614.083L448.832 614.083L448.964 614.565ZM396.541 607.84L396.291 608.273L396.291 608.273L396.541 607.84ZM364.637 561.32L365.131 561.242V561.242L364.637 561.32ZM362.716 551.593L363.199 551.464L363.118 551.163L362.812 551.103L362.716 551.593ZM335.626 546.114L335.79 545.642V545.642L335.626 546.114ZM1047.32 318.339L1047.14 317.871C1016.71 329.381 996.435 350.32 976.515 371.235C956.578 392.168 937.004 413.069 907.927 424.748L908.113 425.212L908.3 425.676C937.61 413.903 957.326 392.832 977.239 371.924C997.169 350.998 1017.3 330.226 1047.49 318.806L1047.32 318.339ZM908.113 425.212L907.927 424.748C900.319 427.803 892.262 429.549 884.071 430.927C875.905 432.301 867.55 433.317 859.472 434.902L859.569 435.393L859.665 435.883C867.737 434.299 875.997 433.3 884.237 431.913C892.452 430.531 900.592 428.771 908.3 425.676L908.113 425.212ZM859.569 435.393L859.069 435.377C858.083 467.003 831.133 492.413 800.175 495.179L800.219 495.677L800.264 496.175C831.667 493.37 859.065 467.597 860.069 435.408L859.569 435.393ZM800.219 495.677L800.175 495.179C761.627 498.622 730.166 472.967 726.48 434.407L725.982 434.455L725.485 434.502C729.224 473.619 761.178 499.666 800.264 496.175L800.219 495.677ZM725.982 434.455L725.971 433.955C690.49 434.767 669.126 443.763 650.673 458.105C641.461 465.265 632.982 473.75 623.845 483.184C614.704 492.622 604.899 503.014 593.013 514.022L593.353 514.389L593.692 514.756C605.604 503.725 615.432 493.308 624.564 483.879C633.7 474.446 642.136 466.006 651.286 458.895C669.558 444.694 690.71 435.762 725.994 434.955L725.982 434.455ZM593.353 514.389L593.013 514.022C566.304 538.757 536.015 555.329 498.704 553.829L498.684 554.329L498.664 554.829C536.335 556.343 566.87 539.595 593.692 514.756L593.353 514.389ZM498.684 554.329L498.189 554.254C496.599 564.731 494.18 573.943 488.949 583.198L489.385 583.444L489.82 583.69C495.132 574.291 497.578 564.949 499.178 554.404L498.684 554.329ZM489.385 583.444L488.951 583.194C480.183 598.386 465.76 609.49 448.833 614.083L448.964 614.565L449.095 615.048C466.276 610.386 480.917 599.114 489.818 583.694L489.385 583.444ZM448.964 614.565L448.832 614.083C431.288 618.88 412.555 616.477 396.79 607.406L396.541 607.84L396.291 608.273C412.288 617.477 431.295 619.915 449.096 615.048L448.964 614.565ZM396.541 607.84L396.791 607.407C380.322 597.906 368.104 580.04 365.131 561.242L364.637 561.32L364.143 561.398C367.163 580.492 379.558 598.621 396.291 608.273L396.541 607.84ZM364.637 561.32L365.131 561.242C364.6 557.892 364.091 554.78 363.199 551.464L362.716 551.593L362.233 551.723C363.11 554.983 363.612 558.046 364.143 561.398L364.637 561.32ZM362.716 551.593L362.812 551.103C358.568 550.273 353.758 549.592 349.068 548.781C344.358 547.967 339.739 547.018 335.79 545.642L335.626 546.114L335.461 546.586C339.492 547.99 344.178 548.951 348.898 549.767C353.638 550.586 358.384 551.255 362.62 552.084L362.716 551.593ZM335.626 546.114L335.79 545.642C312.425 537.502 295.617 521.161 282.13 500.669C268.636 480.168 258.491 455.548 248.434 430.882C238.386 406.237 228.425 381.544 215.308 360.989C202.186 340.424 185.877 323.955 163.109 315.796L162.941 316.267L162.772 316.738C185.259 324.796 201.413 341.072 214.465 361.527C227.523 381.991 237.45 406.591 247.508 431.26C257.558 455.908 267.738 480.622 281.294 501.219C294.857 521.826 311.823 538.351 335.461 546.586L335.626 546.114ZM416.408 0V-1H416.101L415.847 -0.828136L416.408 0ZM443.867 0L444.306 -0.898689L444.098 -1H443.867V0ZM459.183 6.37526L458.759 7.28075L458.759 7.28077L459.183 6.37526ZM494.202 44.6658L493.247 44.9627V44.9628L494.202 44.6658ZM498.77 62.4963L497.78 62.6329L497.9 63.5091L498.785 63.4962L498.77 62.4963ZM637.629 147.276L638.333 146.565V146.565L637.629 147.276ZM703.813 182.311L703.571 183.281L703.724 183.319L703.88 183.309L703.813 182.311ZM724.694 181.907L724.654 182.906L725.542 182.941L725.681 182.064L724.694 181.907ZM753.113 132.311L753.702 133.12L753.702 133.12L753.113 132.311ZM803.129 120.15L803.289 119.163L803.28 119.162L803.129 120.15ZM846.803 145.318L845.989 145.899L845.992 145.903L846.803 145.318ZM855.76 160.937L856.678 160.541L856.674 160.532L855.76 160.937ZM883.783 183.257L883.678 184.251V184.251L883.783 183.257ZM959.529 223.605L960.248 222.91L960.245 222.907L959.529 223.605ZM1046.86 295.893L1047.19 294.952L1047.19 294.952L1046.86 295.893ZM1086.1 302.995L1085.98 303.987L1086.93 304.109L1087.09 303.165L1086.1 302.995ZM1214.08 273.404L1214.92 272.857L1214.92 272.856L1214.08 273.404ZM1222 289.38H1223V289.124L1222.88 288.9L1222 289.38ZM1222 327.698L1222.8 328.299L1223 328.032V327.698H1222ZM1218.55 334.949L1217.62 334.579L1217.62 334.58L1218.55 334.949ZM1106.78 356.483L1107.5 355.794L1107.5 355.794L1106.78 356.483ZM1085.92 314.862L1086.89 314.624L1086.69 313.808L1085.85 313.864L1085.92 314.862ZM1067.15 313.631L1067.27 312.638L1067.12 312.62L1066.97 312.648L1067.15 313.631ZM1047.32 318.339L1046.34 318.116L1046.02 319.536L1047.46 319.328L1047.32 318.339ZM162.941 316.267L162.754 317.25L162.936 317.284L163.118 317.251L162.941 316.267ZM136.517 314.523L136.62 313.528L135.628 313.425L135.522 314.417L136.517 314.523ZM20.8331 357.717L21.5202 356.99H21.5202L20.8331 357.717ZM67.6422 240.323L67.6361 239.323H67.6355L67.6422 240.323ZM117.414 260.624L118.121 259.917L118.117 259.914L117.414 260.624ZM135.81 302.887L134.81 302.888L134.811 304.038L135.95 303.877L135.81 302.887ZM157.884 301.096L157.94 302.095L158.044 302.089L158.144 302.062L157.884 301.096ZM170.151 295.055L169.654 294.188L169.653 294.188L170.151 295.055ZM303.923 88.7253L303.211 88.0229L303.211 88.0229L303.923 88.7253ZM363.553 62.4479L363.56 63.4479L364.512 63.4408L364.552 62.4896L363.553 62.4479ZM398.026 8.34965L397.558 7.46623L397.558 7.46626L398.026 8.34965ZM605.464 244.245L606.227 244.892L606.613 244.436L606.395 243.879L605.464 244.245ZM513.763 74.5707L514.19 73.6666L514.19 73.6665L513.763 74.5707ZM499.849 70.1402L500.097 69.1716L499.149 68.9285L498.886 69.8704L499.849 70.1402ZM465.516 124.767L465.986 125.65L465.986 125.65L465.516 124.767ZM362.797 70.2327L363.786 70.0835L363.635 69.0869L362.64 69.2451L362.797 70.2327ZM295.914 112.854L296.711 113.457V113.457L295.914 112.854ZM177.677 301.154L177.181 300.286L174.663 301.727L177.534 302.144L177.677 301.154ZM239.764 302.082L239.764 301.082H239.763L239.764 302.082ZM363.168 302.148L363.167 303.148L364.095 303.149L364.165 302.224L363.168 302.148ZM377.797 265.14L377.024 264.506L377.022 264.508L377.797 265.14ZM424.177 240.696L424.264 241.692L424.269 241.692L424.177 240.696ZM475.448 256.541L476.089 255.773L476.085 255.77L475.448 256.541ZM499.723 302.705L498.727 302.795L498.822 303.847L499.867 303.695L499.723 302.705ZM531.536 297.677L531.79 298.644H531.79L531.536 297.677ZM183.039 315.363L183.009 316.362L183.158 316.367L183.303 316.327L183.039 315.363ZM1051.55 310.873L1052.28 311.559L1053.59 310.171L1051.7 309.885L1051.55 310.873ZM1045.45 309.946L1045.04 310.86L1045.16 310.914L1045.3 310.935L1045.45 309.946ZM1004.01 286.736L1003.38 287.516L1003.38 287.516L1004.01 286.736ZM900.842 200.773L900.506 201.715V201.715L900.842 200.773ZM861.811 192.636L861.983 191.651L860.924 191.467L860.816 192.535L861.811 192.636ZM724.681 194.919L725.662 194.724L725.518 194.005L724.789 193.925L724.681 194.919ZM701.99 197.305L701.946 198.304L702.112 198.311L702.271 198.264L701.99 197.305ZM680.665 202.389L681.046 203.314L681.13 203.279L681.206 203.23L680.665 202.389ZM617.092 251.685L617.774 252.417L617.786 252.405L617.798 252.394L617.092 251.685ZM609.83 259.273L610.557 259.959L610.591 259.923L610.622 259.884L609.83 259.273ZM559.186 300.749L558.716 299.866L558.716 299.866L559.186 300.749ZM539.307 309.629L539.515 310.607L539.679 310.572L539.823 310.486L539.307 309.629ZM519.29 313.887L519.322 314.887L519.411 314.884L519.498 314.865L519.29 313.887ZM500.134 316.053L499.684 315.16L499.348 315.329L499.207 315.678L500.134 316.053ZM494.651 333.168L493.713 332.822L493.71 332.829L494.651 333.168ZM456.892 371.708L457.283 372.628H457.283L456.892 371.708ZM404.622 371.876L405.004 370.952H405.004L404.622 371.876ZM362.597 314.292L363.589 314.17L363.467 313.169L362.467 313.3L362.597 314.292ZM310.236 315.276L310.236 316.276H310.236L310.236 315.276ZM216.649 315.237L216.65 314.237H216.649L216.649 315.237ZM535.499 76.8814L535.87 75.9527L534.819 77.6148L535.499 76.8814ZM600.336 199.89L601.286 199.578V199.578L600.336 199.89ZM611.872 238.062L610.896 238.279L611.234 239.798L612.475 238.86L611.872 238.062ZM632.571 217.565L633.268 218.283V218.283L632.571 217.565ZM684.139 186.397L684.531 187.317L686.408 186.518L684.627 185.524L684.139 186.397ZM683.522 186.052L684.01 185.179L684.003 185.176L683.522 186.052ZM674.037 182.643L673.633 183.557L673.633 183.557L674.037 182.643ZM646.875 167.713L647.466 166.906V166.906L646.875 167.713ZM621.081 144.046L621.782 143.333V143.333L621.081 144.046ZM437.811 120.145L437.941 121.136L437.941 121.136L437.811 120.145ZM423.341 13.9587L423.482 14.9487V14.9487L423.341 13.9587ZM377.782 74.2488L378.773 74.1138L378.773 74.1137L377.782 74.2488ZM60.4466 256.912L60.2913 255.924L60.2912 255.924L60.4466 256.912ZM16.8788 316.316L17.8677 316.168V316.168L16.8788 316.316ZM75.9655 360.305L75.8239 359.315H75.8239L75.9655 360.305ZM120.255 300.793L121.244 300.645V300.645L120.255 300.793ZM1163.54 360.263L1163.7 361.251L1163.7 361.251L1163.54 360.263ZM1207.24 301.18L1206.25 301.322V301.322L1207.24 301.18ZM1148.68 256.784L1148.55 255.793L1148.55 255.793L1148.68 256.784ZM1107.06 288.984L1106.14 288.609L1106.14 288.609L1107.06 288.984ZM797.883 239.818L797.793 238.822V238.822L797.883 239.818ZM845.228 183.492L844.231 183.574V183.574L845.228 183.492ZM789.266 135.718L789.191 134.721V134.721L789.266 135.718ZM741.145 192.109L742.141 192.027V192.027L741.145 192.109ZM437.877 360.27L437.741 359.279V359.279L437.877 360.27ZM422.641 257.034L422.485 256.046V256.046L422.641 257.034ZM379.192 316.191L378.203 316.337V316.337L379.192 316.191ZM416.408 0V1H443.867V0V-1H416.408V0ZM443.867 0L443.428 0.898689C446.076 2.19101 448.68 3.20687 451.226 4.18673C453.782 5.17054 456.272 6.11545 458.759 7.28075L459.183 6.37526L459.607 5.46976C457.044 4.26828 454.481 3.29674 451.944 2.32021C449.397 1.33973 446.867 0.351354 444.306 -0.898689L443.867 0ZM459.183 6.37526L458.759 7.28077C475.904 15.3149 487.573 26.7126 493.247 44.9627L494.202 44.6658L495.157 44.3689C489.284 25.4814 477.158 13.6937 459.607 5.46974L459.183 6.37526ZM494.202 44.6658L493.247 44.9628C495.252 51.4107 496.83 55.7452 497.78 62.6329L498.77 62.4963L499.761 62.3598C498.784 55.2695 497.141 50.7487 495.157 44.3688L494.202 44.6658ZM498.77 62.4963L498.785 63.4962C562.527 62.5652 595.4 106.842 636.925 147.986L637.629 147.276L638.333 146.565C597.125 105.735 563.549 60.5501 498.756 61.4964L498.77 62.4963ZM637.629 147.276L636.925 147.986C657.688 168.559 676.157 176.461 703.571 183.281L703.813 182.311L704.054 181.341C676.866 174.577 658.763 166.808 638.333 146.565L637.629 147.276ZM703.813 182.311L703.88 183.309C711.759 182.779 716.814 182.591 724.654 182.906L724.694 181.907L724.734 180.907C716.799 180.589 711.669 180.78 703.746 181.313L703.813 182.311ZM724.694 181.907L725.681 182.064C728.992 161.272 736.322 145.758 753.702 133.12L753.113 132.311L752.525 131.502C734.611 144.529 727.077 160.581 723.706 181.749L724.694 181.907ZM753.113 132.311L753.702 133.12C767.904 122.781 785.615 118.476 802.977 121.139L803.129 120.15L803.28 119.162C785.396 116.419 767.154 120.854 752.525 131.503L753.113 132.311ZM803.129 120.15L802.968 121.138C819.352 123.8 836.291 132.303 845.989 145.899L846.803 145.318L847.618 144.738C837.531 130.597 820.05 121.887 803.289 119.163L803.129 120.15ZM846.803 145.318L845.992 145.903C849.468 150.729 852.435 155.904 854.846 161.342L855.76 160.937L856.674 160.532C854.208 154.967 851.172 149.673 847.615 144.734L846.803 145.318ZM855.76 160.937L854.842 161.333C857.666 167.879 859.102 172.35 860.101 175.44C860.597 176.975 861.002 178.222 861.422 179.203C861.845 180.191 862.321 181.006 863.01 181.626C863.711 182.257 864.55 182.612 865.564 182.834C866.556 183.051 867.781 183.153 869.295 183.238C872.353 183.41 876.805 183.522 883.678 184.251L883.783 183.257L883.889 182.262C876.951 181.526 872.417 181.41 869.408 181.241C867.889 181.156 866.81 181.059 865.991 180.88C865.193 180.705 864.712 180.467 864.348 180.139C863.971 179.8 863.635 179.289 863.261 178.416C862.885 177.537 862.51 176.389 862.004 174.825C860.998 171.716 859.54 167.174 856.678 160.541L855.76 160.937ZM883.783 183.257L883.678 184.251C909.826 187.026 940.483 205.5 958.813 224.303L959.529 223.605L960.245 222.907C941.703 203.886 910.64 185.101 883.889 182.262L883.783 183.257ZM959.529 223.605L958.81 224.3C972.141 238.093 984.627 252.878 998.403 265.804C1012.22 278.771 1027.47 290.006 1046.52 296.835L1046.86 295.893L1047.19 294.952C1028.49 288.248 1013.48 277.206 999.771 264.346C986.024 251.446 973.724 236.853 960.248 222.91L959.529 223.605ZM1046.86 295.893L1046.52 296.834C1058.96 301.303 1073.07 302.329 1085.98 303.987L1086.1 302.995L1086.23 302.003C1073.15 300.323 1059.36 299.325 1047.19 294.952L1046.86 295.893ZM1086.1 302.995L1087.09 303.165C1092.9 269.596 1115.46 248.557 1141.02 242.758C1166.57 236.959 1195.21 246.372 1213.24 273.951L1214.08 273.404L1214.92 272.856C1196.42 244.574 1166.94 234.825 1140.58 240.807C1114.22 246.79 1091.06 268.477 1085.12 302.824L1086.1 302.995ZM1214.08 273.404L1213.24 273.951C1214.92 276.525 1216.17 279.163 1217.36 281.839C1218.54 284.497 1219.68 287.223 1221.12 289.859L1222 289.38L1222.88 288.9C1221.49 286.358 1220.4 283.74 1219.19 281.026C1217.99 278.331 1216.69 275.571 1214.92 272.857L1214.08 273.404ZM1222 289.38H1221V327.698H1222H1223V289.38H1222ZM1222 327.698L1221.2 327.098C1220.68 327.79 1219.93 329.326 1219.26 330.768C1218.58 332.254 1217.93 333.788 1217.62 334.579L1218.55 334.949L1219.48 335.319C1219.78 334.562 1220.41 333.06 1221.08 331.602C1221.77 330.1 1222.44 328.784 1222.8 328.299L1222 327.698ZM1218.55 334.949L1217.62 334.58C1199.87 379.301 1140.65 390.616 1107.5 355.794L1106.78 356.483L1106.05 357.173C1140.2 393.046 1201.18 381.403 1219.48 335.318L1218.55 334.949ZM1106.78 356.483L1107.5 355.794C1095.62 343.31 1091 331.373 1086.89 314.624L1085.92 314.862L1084.95 315.1C1089.1 332.019 1093.83 344.335 1106.05 357.173L1106.78 356.483ZM1085.92 314.862L1085.85 313.864C1079.32 314.303 1073.92 313.444 1067.27 312.638L1067.15 313.631L1067.03 314.624C1073.59 315.419 1079.22 316.314 1085.99 315.859L1085.92 314.862ZM1067.15 313.631L1066.97 312.648C1063.29 313.329 1060.11 314.258 1056.99 315.132C1053.85 316.008 1050.76 316.834 1047.17 317.349L1047.32 318.339L1047.46 319.328C1051.18 318.794 1054.38 317.937 1057.53 317.058C1060.68 316.176 1063.76 315.276 1067.34 314.614L1067.15 313.631ZM162.941 316.267L163.127 315.285C158.887 314.482 154.424 314.275 149.96 314.15C145.472 314.024 140.997 313.982 136.62 313.528L136.517 314.523L136.413 315.517C140.887 315.982 145.47 316.025 149.904 316.149C154.363 316.274 158.686 316.479 162.754 317.25L162.941 316.267ZM136.517 314.523L135.522 314.417C129.382 372.005 63.4426 396.644 21.5202 356.99L20.8331 357.717L20.1459 358.443C63.2885 399.251 131.197 373.839 137.511 314.629L136.517 314.523ZM20.8331 357.717L21.5202 356.99C-21.5166 316.283 7.58886 241.723 67.6488 241.323L67.6422 240.323L67.6355 239.323C5.78171 239.735 -24.2064 316.491 20.1459 358.443L20.8331 357.717ZM67.6422 240.323L67.6482 241.323C86.0103 241.211 103.662 248.412 116.71 261.335L117.414 260.624L118.117 259.914C104.692 246.617 86.5296 239.208 67.6361 239.323L67.6422 240.323ZM117.414 260.624L116.706 261.331C127.925 272.563 134.8 286.967 134.81 302.888L135.81 302.887L136.81 302.886C136.8 286.36 129.657 271.467 118.121 259.917L117.414 260.624ZM135.81 302.887L135.95 303.877C143.34 302.832 150.438 302.514 157.94 302.095L157.884 301.096L157.828 300.098C150.36 300.515 143.164 300.837 135.67 301.897L135.81 302.887ZM157.884 301.096L158.144 302.062C162.534 300.88 166.944 298.048 170.649 295.923L170.151 295.055L169.653 294.188C165.791 296.404 161.691 299.036 157.624 300.131L157.884 301.096ZM170.151 295.055L170.649 295.923C186.225 286.988 199.094 272.876 210.452 255.98C221.811 239.084 231.699 219.341 241.284 199.088C250.879 178.812 260.163 158.042 270.347 138.984C280.529 119.931 291.57 102.669 304.634 89.4276L303.923 88.7253L303.211 88.0229C289.948 101.466 278.8 118.923 268.583 138.042C258.369 157.156 249.045 178.011 239.476 198.232C229.895 218.477 220.061 238.102 208.793 254.865C197.524 271.627 184.861 285.465 169.654 294.188L170.151 295.055ZM303.923 88.7253L304.634 89.4276C320.747 73.0978 340.585 63.6172 363.56 63.4479L363.553 62.4479L363.545 61.4479C339.975 61.6216 319.647 71.3651 303.211 88.0229L303.923 88.7253ZM363.553 62.4479L364.552 62.4896C365.423 41.6293 380.165 18.9571 398.495 9.23304L398.026 8.34965L397.558 7.46626C378.621 17.5119 363.455 40.8124 362.554 62.4062L363.553 62.4479ZM398.026 8.34965L398.495 9.23307C401.511 7.63309 404.516 6.59628 407.622 5.41533C410.706 4.24252 413.847 2.94076 416.969 0.828136L416.408 0L415.847 -0.828136C412.926 1.14937 409.963 2.38511 406.911 3.54593C403.879 4.69859 400.715 5.79154 397.558 7.46623L398.026 8.34965ZM605.464 244.245L606.395 243.879C601.463 231.327 596.676 216.076 591.401 199.801C586.132 183.543 580.383 166.288 573.545 149.794C559.89 116.861 541.791 86.709 514.19 73.6666L513.763 74.5707L513.336 75.4748C540.206 88.1725 558.065 117.68 571.698 150.56C578.503 166.973 584.23 184.163 589.498 200.418C594.761 216.655 599.573 231.985 604.533 244.611L605.464 244.245ZM513.763 74.5707L514.19 73.6665C512.708 72.966 509.981 72.0495 507.273 71.2158C504.542 70.3755 501.752 69.5961 500.097 69.1716L499.849 70.1402L499.6 71.1089C501.221 71.5247 503.981 72.2952 506.684 73.1273C509.41 73.9662 512.002 74.8447 513.336 75.4748L513.763 74.5707ZM499.849 70.1402L498.886 69.8704C492.374 93.1127 487.148 112.118 465.046 123.884L465.516 124.767L465.986 125.65C488.941 113.429 494.329 93.5493 500.811 70.41L499.849 70.1402ZM465.516 124.767L465.046 123.884C441.136 136.612 417.751 135.766 399.406 125.5C381.042 115.224 367.611 95.4425 363.786 70.0835L362.797 70.2327L361.808 70.3818C365.713 96.2698 379.457 116.629 398.429 127.245C417.418 137.871 441.528 138.669 465.986 125.65L465.516 124.767ZM362.797 70.2327L362.64 69.2451C345.76 71.9272 333.967 75.8998 323.824 82.6369C313.698 89.3638 305.293 98.7974 295.116 112.251L295.914 112.854L296.711 113.457C306.859 100.043 315.097 90.8351 324.931 84.3029C334.749 77.7811 346.235 73.8768 362.954 71.2203L362.797 70.2327ZM295.914 112.854L295.116 112.25C285.842 124.51 277.118 140.547 268.436 158.127C264.092 166.922 259.752 176.117 255.355 185.431C250.957 194.747 246.502 204.184 241.922 213.475C232.76 232.061 223.116 250.031 212.474 265.234C201.829 280.444 190.229 292.82 177.181 300.286L177.677 301.154L178.174 302.022C191.585 294.348 203.387 281.705 214.113 266.381C224.843 251.051 234.541 232.972 243.716 214.359C248.305 205.05 252.767 195.599 257.164 186.284C261.562 176.967 265.895 167.789 270.229 159.013C278.903 141.451 287.558 125.557 296.711 113.457L295.914 112.854ZM177.677 301.154L177.534 302.144C183.797 303.054 195.7 303.285 207.809 303.293C213.879 303.298 220.024 303.246 225.573 303.192C231.124 303.138 236.074 303.084 239.764 303.082L239.764 302.082L239.763 301.082C236.061 301.084 231.098 301.139 225.553 301.192C220.005 301.246 213.869 301.298 207.811 301.293C195.662 301.285 183.914 301.05 177.821 300.165L177.677 301.154ZM239.764 302.082L239.763 303.082L363.167 303.148L363.168 302.148L363.168 301.148L239.764 301.082L239.764 302.082ZM363.168 302.148L364.165 302.224C365.205 288.48 369.818 276.506 378.572 265.772L377.797 265.14L377.022 264.508C368 275.57 363.24 287.937 362.171 302.073L363.168 302.148ZM377.797 265.14L378.57 265.774C389.936 251.919 406.411 243.237 424.264 241.692L424.177 240.696L424.091 239.7C405.702 241.291 388.732 250.234 377.024 264.506L377.797 265.14ZM424.177 240.696L424.269 241.692C442.517 240.018 460.687 245.633 474.811 257.312L475.448 256.541L476.085 255.77C461.554 243.755 442.861 237.978 424.086 239.7L424.177 240.696ZM475.448 256.541L474.807 257.309C487.702 268.07 497.236 286.196 498.727 302.795L499.723 302.705L500.719 302.616C499.18 285.484 489.387 266.871 476.089 255.773L475.448 256.541ZM499.723 302.705L499.867 303.695C510.386 302.162 521.277 301.404 531.79 298.644L531.536 297.677L531.282 296.709C520.912 299.433 510.3 300.154 499.579 301.716L499.723 302.705ZM531.536 297.677L531.79 298.644C560.879 291.004 587.3 267.21 606.227 244.892L605.464 244.245L604.701 243.598C585.846 265.832 559.76 289.23 531.282 296.709L531.536 297.677ZM183.039 315.363L183.069 314.363C175.626 314.138 170.284 313.925 162.763 315.283L162.941 316.267L163.118 317.251C170.407 315.935 175.552 316.136 183.009 316.362L183.039 315.363ZM1047.32 318.339L1048.29 318.561C1048.8 316.336 1049.03 315.491 1049.47 314.758C1049.93 313.985 1050.61 313.329 1052.28 311.559L1051.55 310.873L1050.83 310.188C1049.29 311.818 1048.36 312.714 1047.75 313.733C1047.12 314.792 1046.83 315.979 1046.34 318.116L1047.32 318.339ZM1051.55 310.873L1051.7 309.885L1045.6 308.957L1045.45 309.946L1045.3 310.935L1051.4 311.862L1051.55 310.873ZM1045.45 309.946L1045.85 309.032C1031.45 302.623 1016.78 295.705 1004.63 285.956L1004.01 286.736L1003.38 287.516C1015.75 297.445 1030.64 304.453 1045.04 310.86L1045.45 309.946ZM1004.01 286.736L1004.63 285.956C987.253 272 972.436 254.497 956.358 238.365C940.331 222.285 923.13 207.665 901.178 199.831L900.842 200.773L900.506 201.715C922.028 209.395 938.973 223.755 954.942 239.777C970.86 255.748 985.889 273.47 1003.38 287.516L1004.01 286.736ZM900.842 200.773L901.178 199.831C890.785 196.122 873.278 193.617 861.983 191.651L861.811 192.636L861.64 193.621C873.09 195.614 890.324 198.081 900.506 201.715L900.842 200.773ZM861.811 192.636L860.816 192.535C856.878 231.405 827.43 253.706 796.794 255.437C766.204 257.165 734.362 238.376 725.662 194.724L724.681 194.919L723.7 195.115C732.596 239.749 765.327 259.218 796.907 257.434C828.44 255.652 858.76 232.668 862.806 192.737L861.811 192.636ZM724.681 194.919L724.789 193.925C719.607 193.36 716.331 193.215 713.077 193.601C709.839 193.985 706.664 194.89 701.708 196.345L701.99 197.305L702.271 198.264C707.264 196.798 710.272 195.947 713.312 195.587C716.335 195.229 719.43 195.352 724.573 195.913L724.681 194.919ZM701.99 197.305L702.033 196.306C697.868 196.126 694.284 196.205 690.786 196.952C687.275 197.702 683.899 199.115 680.123 201.549L680.665 202.389L681.206 203.23C684.809 200.908 687.963 199.6 691.203 198.908C694.457 198.213 697.845 198.127 701.946 198.304L701.99 197.305ZM680.665 202.389L680.283 201.465C650.372 213.796 638.233 229.213 616.386 250.977L617.092 251.685L617.798 252.394C639.758 230.517 651.587 215.459 681.046 203.314L680.665 202.389ZM617.092 251.685L616.41 250.954C613.462 253.7 611.551 255.407 609.038 258.662L609.83 259.273L610.622 259.884C613.019 256.778 614.81 255.178 617.774 252.417L617.092 251.685ZM609.83 259.273L609.103 258.587C592.148 276.551 581.035 287.992 558.716 299.866L559.186 300.749L559.656 301.632C582.278 289.596 593.577 277.951 610.557 259.959L609.83 259.273ZM559.186 300.749L558.716 299.866C555.976 301.324 552.173 302.854 548.434 304.377C544.745 305.88 541.089 307.387 538.79 308.773L539.307 309.629L539.823 310.486C541.957 309.199 545.444 307.755 549.189 306.229C552.883 304.724 556.803 303.15 559.656 301.632L559.186 300.749ZM539.307 309.629L539.099 308.651L519.082 312.909L519.29 313.887L519.498 314.865L539.515 310.607L539.307 309.629ZM519.29 313.887L519.259 312.888C516.971 312.96 513.1 313.023 509.336 313.308C507.452 313.451 505.574 313.651 503.916 313.94C502.277 314.226 500.773 314.612 499.684 315.16L500.134 316.053L500.584 316.947C501.403 316.534 502.671 316.188 504.26 315.911C505.829 315.637 507.636 315.443 509.487 315.302C513.193 315.021 516.992 314.961 519.322 314.887L519.29 313.887ZM500.134 316.053L499.207 315.678C498.014 318.624 497.166 321.498 496.354 324.33C495.54 327.173 494.765 329.965 493.713 332.822L494.651 333.168L495.589 333.513C496.673 330.571 497.47 327.698 498.277 324.881C499.087 322.052 499.912 319.268 501.061 316.429L500.134 316.053ZM494.651 333.168L493.71 332.829C487.146 351.063 474.25 363.244 456.501 370.787L456.892 371.708L457.283 372.628C475.468 364.9 488.813 352.338 495.592 333.506L494.651 333.168ZM456.892 371.708L456.501 370.787C438.879 378.275 422.642 378.263 405.004 370.952L404.622 371.876L404.239 372.8C422.366 380.314 439.161 380.328 457.283 372.628L456.892 371.708ZM404.622 371.876L405.004 370.952C380.533 360.809 366.766 340.046 363.589 314.17L362.597 314.292L361.604 314.413C364.856 340.905 379.014 362.345 404.239 372.8L404.622 371.876ZM362.597 314.292L362.467 313.3C349.946 314.943 323.777 314.279 310.236 314.276L310.236 315.276L310.236 316.276C323.624 316.279 350.034 316.949 362.727 315.283L362.597 314.292ZM310.236 315.276L310.237 314.276L216.65 314.237L216.649 315.237L216.649 316.237L310.236 316.276L310.236 315.276ZM216.649 315.237L216.649 314.237C214.042 314.237 206.514 314.042 199.143 313.96C195.472 313.919 191.851 313.906 188.937 313.96C187.481 313.988 186.191 314.032 185.156 314.099C184.152 314.164 183.301 314.254 182.775 314.398L183.039 315.363L183.303 316.327C183.606 316.244 184.264 316.161 185.285 316.095C186.277 316.03 187.532 315.987 188.974 315.96C191.858 315.906 195.455 315.919 199.12 315.96C206.422 316.042 214.041 316.237 216.65 316.237L216.649 315.237ZM535.499 76.8814L534.819 77.6148C570.033 110.256 584.611 155.303 599.386 200.203L600.336 199.89L601.286 199.578C586.544 154.779 571.836 109.201 536.179 76.1481L535.499 76.8814ZM600.336 199.89L599.386 200.203C602.977 211.117 608.546 227.716 610.896 238.279L611.872 238.062L612.849 237.845C610.471 227.159 604.859 210.437 601.286 199.578L600.336 199.89ZM611.872 238.062L612.475 238.86C614.573 237.274 618.682 233.178 622.763 229.009C626.886 224.796 631.024 220.462 633.268 218.283L632.571 217.565L631.875 216.848C629.607 219.05 625.42 223.435 621.333 227.61C617.204 231.829 613.219 235.791 611.27 237.264L611.872 238.062ZM632.571 217.565L633.268 218.283C648.797 203.201 664.785 195.719 684.531 187.317L684.139 186.397L683.747 185.477C663.973 193.891 647.687 201.491 631.875 216.848L632.571 217.565ZM684.139 186.397L684.627 185.524L684.009 185.179L683.522 186.052L683.035 186.925L683.652 187.27L684.139 186.397ZM683.522 186.052L684.003 185.176C681.829 183.981 680.306 183.514 678.868 183.139C677.453 182.77 676.213 182.51 674.441 181.728L674.037 182.643L673.633 183.557C675.586 184.419 677.007 184.721 678.363 185.074C679.695 185.421 681.052 185.836 683.041 186.929L683.522 186.052ZM674.037 182.643L674.441 181.728C665.555 177.806 655.225 172.585 647.466 166.906L646.875 167.713L646.285 168.52C654.217 174.325 664.701 179.615 673.633 183.557L674.037 182.643ZM646.875 167.713L647.466 166.906C638.33 160.22 629.951 151.349 621.782 143.333L621.081 144.046L620.381 144.76C628.467 152.695 636.997 161.723 646.285 168.52L646.875 167.713ZM621.081 144.046L621.782 143.333C591.171 113.295 577.176 92.4427 535.87 75.9527L535.499 76.8814L535.128 77.8102C575.955 94.1088 589.575 114.531 620.381 144.76L621.081 144.046ZM437.811 120.145L437.941 121.136C467.943 117.213 489.027 89.6258 484.94 59.6406L483.949 59.7756L482.959 59.9106C486.895 88.7975 466.583 115.373 437.682 119.153L437.811 120.145ZM483.949 59.7756L484.94 59.6406C480.854 29.6553 453.158 8.71808 423.201 12.9686L423.341 13.9587L423.482 14.9487C452.34 10.8541 479.022 31.0237 482.959 59.9106L483.949 59.7756ZM423.341 13.9587L423.201 12.9686C393.474 17.1864 372.736 44.629 376.792 74.3838L377.782 74.2488L378.773 74.1137C374.866 45.4488 394.845 19.012 423.482 14.9487L423.341 13.9587ZM377.782 74.2488L376.792 74.3838C380.846 104.139 408.17 125.029 437.941 121.136L437.811 120.145L437.682 119.153C409.002 122.903 382.679 102.779 378.773 74.1138L377.782 74.2488ZM60.4466 256.912L60.2912 255.924C31.3729 260.473 11.5439 287.51 15.8899 316.464L16.8788 316.316L17.8677 316.168C13.6848 288.3 32.7698 262.278 60.602 257.9L60.4466 256.912ZM16.8788 316.316L15.8899 316.464C20.2358 345.419 47.1281 365.44 76.1071 361.295L75.9655 360.305L75.8239 359.315C47.9334 363.305 22.0505 344.035 17.8677 316.168L16.8788 316.316ZM75.9655 360.305L76.1071 361.295C105.374 357.109 125.632 329.886 121.244 300.645L120.255 300.793L119.266 300.942C123.489 329.086 103.991 355.287 75.8239 359.315L75.9655 360.305ZM120.255 300.793L121.244 300.645C116.854 271.404 89.4962 251.331 60.2913 255.924L60.4466 256.912L60.602 257.9C88.7101 253.48 115.041 272.799 119.266 300.942L120.255 300.793ZM1163.54 360.263L1163.7 361.251C1192.52 356.767 1212.38 329.922 1208.23 301.038L1207.24 301.18L1206.25 301.322C1210.24 329.122 1191.13 354.96 1163.39 359.274L1163.54 360.263ZM1207.24 301.18L1208.23 301.038C1204.09 272.154 1177.47 251.982 1148.55 255.793L1148.68 256.784L1148.81 257.776C1176.65 254.108 1202.26 273.523 1206.25 301.322L1207.24 301.18ZM1148.68 256.784L1148.55 255.793C1129.54 258.298 1113.34 270.832 1106.14 288.609L1107.06 288.984L1107.99 289.36C1114.93 272.25 1130.52 260.187 1148.81 257.776L1148.68 256.784ZM1107.06 288.984L1106.14 288.609C1098.94 306.387 1101.86 326.662 1113.77 341.695L1114.55 341.074L1115.33 340.453C1103.87 325.984 1101.06 306.47 1107.99 289.36L1107.06 288.984ZM1114.55 341.074L1113.77 341.695C1125.68 356.728 1144.74 364.197 1163.7 361.251L1163.54 360.263L1163.39 359.274C1145.14 362.11 1126.8 354.922 1115.33 340.453L1114.55 341.074ZM797.883 239.818L797.973 240.814C827.092 238.184 848.636 212.552 846.224 183.409L845.228 183.492L844.231 183.574C846.553 211.622 825.817 236.291 797.793 238.822L797.883 239.818ZM845.228 183.492L846.224 183.409C843.812 154.266 818.347 132.526 789.191 134.721L789.266 135.718L789.342 136.715C817.401 134.603 841.91 155.525 844.231 183.574L845.228 183.492ZM789.266 135.718L789.191 134.721C759.727 136.939 737.71 162.739 740.148 192.192L741.145 192.109L742.141 192.027C739.795 163.681 760.985 138.85 789.342 136.715L789.266 135.718ZM741.145 192.109L740.148 192.192C742.585 221.644 768.545 243.473 797.973 240.814L797.883 239.818L797.793 238.822C769.471 241.381 744.487 220.373 742.141 192.027L741.145 192.109ZM437.877 360.27L438.012 361.261C456.965 358.667 473.065 346.09 480.17 328.326L479.242 327.955L478.313 327.583C471.475 344.679 455.981 356.783 437.741 359.279L437.877 360.27ZM479.242 327.955L480.17 328.326C487.276 310.562 484.293 290.349 472.359 275.395L471.577 276.019L470.796 276.642C482.281 291.034 485.152 310.487 478.313 327.583L479.242 327.955ZM471.577 276.019L472.359 275.395C460.424 260.441 441.38 253.053 422.485 256.046L422.641 257.034L422.798 258.021C440.982 255.141 459.31 262.251 470.796 276.642L471.577 276.019ZM422.641 257.034L422.485 256.046C393.698 260.607 373.948 287.498 378.203 316.337L379.192 316.191L380.182 316.045C376.086 288.29 395.094 262.411 422.798 258.021L422.641 257.034ZM379.192 316.191L378.203 316.337C382.459 345.176 409.135 365.213 438.012 361.261L437.877 360.27L437.741 359.279C409.95 363.082 384.278 343.799 380.181 316.045L379.192 316.191Z" fill="var(--stroke-0, white)" fill-opacity="0.2" mask="url(#path-1-inside-1_0_4)"/>
</g>
<path id="Vector_2" d="M691.831 197.92C694.709 197.304 697.681 197.16 701.109 197.249C685.948 207.305 673.224 224.482 662.896 243.375C652.258 262.833 644.131 284.166 638.484 301.552C637.973 303.125 637.725 305.219 637.676 307.298C637.626 309.381 637.775 311.492 638.081 313.112L638.086 313.14L638.095 313.166C644.671 334.676 657.792 366.597 670.198 384.749C680.413 399.696 686.606 408.155 694.231 413.814C701.866 419.483 710.903 422.319 726.712 426.151L727.289 426.292L727.328 425.699C729.929 386.371 760.821 360.272 799.852 363.067H799.853C817.074 364.283 833.096 372.347 844.351 385.465V385.464C853.921 396.694 860.457 411.267 860.403 426.129L860.4 426.741L861.001 426.621C873.778 424.068 885.004 423.002 897.909 419.304C926.918 410.989 947.402 390.484 967.384 369.313C987.083 348.441 1006.29 326.934 1032.73 315.469L1034 314.931C1035.44 314.328 1038.07 313.422 1040.57 312.498C1041.82 312.039 1043.03 311.576 1044.03 311.15C1044.9 310.782 1045.65 310.424 1046.13 310.105L1051.09 310.858C1049.93 312.085 1049.22 312.813 1048.74 313.629C1048.18 314.567 1047.91 315.62 1047.45 317.611C1017.17 329.155 996.965 350.06 977.109 370.942C957.182 391.901 937.617 412.827 908.555 424.52C900.951 427.579 892.897 429.326 884.71 430.706C876.548 432.082 868.196 433.099 860.123 434.686L859.732 434.763L859.72 435.16C858.734 466.825 831.797 492.266 800.855 495.034C762.326 498.481 730.88 472.796 727.195 434.189L727.151 433.727L726.687 433.737C691.222 434.55 669.868 443.557 651.424 457.916C642.216 465.084 633.742 473.581 624.609 483.025C615.472 492.475 605.673 502.88 593.792 513.9C567.096 538.664 536.821 555.256 499.528 553.755L499.081 553.736L499.014 554.18C497.425 564.668 495.007 573.89 489.78 583.154C481.015 598.364 466.6 609.482 449.682 614.08H449.681C432.145 618.882 413.422 616.477 397.664 607.396H397.663C381.46 598.032 369.374 580.553 366.166 562.057L366.02 561.176L365.62 558.698C365.212 556.251 364.758 553.876 364.089 551.386L364.008 551.085L363.702 551.024L362.086 550.72C358.26 550.021 354.067 549.411 349.965 548.701C345.257 547.886 340.641 546.935 336.694 545.558C313.34 537.408 296.539 521.048 283.059 500.531C269.572 480.005 259.432 455.356 249.38 430.661C239.336 405.987 229.38 381.265 216.27 360.685C203.495 340.631 187.699 324.47 165.859 316.095C172.224 315.117 177.125 315.293 183.868 315.498C203.074 327.003 216.928 344.087 228.227 363.903C239.551 383.764 248.289 406.332 257.287 428.74C275.259 473.497 294.266 517.654 337.043 537.526C340.154 538.971 345.025 540.054 349.993 541.072C354.997 542.098 360.119 543.06 363.839 544.258L364.352 544.423L364.479 543.9C370.465 519.207 379.603 499.861 404.091 489.261C421.265 481.941 440.642 481.77 457.942 488.785C472.586 494.715 486.314 506.915 492.332 521.719C493.794 525.316 494.91 529.11 496.06 532.965C497.207 536.811 498.389 540.716 499.978 544.491L500.059 544.685L500.255 544.762C501.437 545.227 503.041 545.305 504.785 545.157C506.544 545.008 508.507 544.626 510.445 544.123C514.314 543.12 518.15 541.62 520.144 540.48C537.954 530.298 550.826 513.181 560.901 494.132C570.977 475.083 578.285 454.043 584.933 435.983L584.932 435.982C593.203 413.756 600.959 391.34 608.191 368.752L608.285 368.461L608.068 368.245C604.875 365.064 601.195 361.794 597.513 358.568C593.826 355.339 590.139 352.156 586.91 349.136C574.922 337.92 566.032 330.771 556.236 325.488C546.892 320.449 536.746 317.122 522.341 313.56L540.009 309.796C540.266 309.955 540.64 310.144 541.08 310.351C541.672 310.629 542.435 310.963 543.315 311.335C545.074 312.079 547.319 312.983 549.637 313.911C554.29 315.774 559.211 317.725 561.186 318.704C566.839 321.508 577.171 329.285 587.018 337.585C596.863 345.884 606.131 354.629 609.679 359.34L610.193 360.022L610.536 359.24C614.824 349.455 624.587 317.035 627.632 305.877L627.688 305.675L627.582 305.494C625.124 301.252 621.966 292.415 618.929 283.165C615.95 274.095 613.086 264.633 611.16 258.943C613.345 256.139 615.059 254.543 617.621 252.156C621.985 266.08 628.098 281.779 630.493 295.747L631.469 295.794C633.557 288.075 637.272 280.061 640.406 272.523C651.214 246.525 662.159 222.817 681.722 202.284C685.346 199.951 688.539 198.624 691.831 197.92ZM471.583 513.807C458.523 499.45 438.773 493.228 419.862 497.512C391.038 504.041 372.838 532.603 379.058 561.544C385.278 590.486 413.598 609.015 442.55 603.081C461.545 599.188 476.988 585.374 482.994 566.906C488.999 548.439 484.643 528.162 471.583 513.807ZM613.644 377.599C612.075 381.826 610.847 386.036 609.647 390.172C608.445 394.314 607.272 398.379 605.81 402.348C591.798 440.378 580.617 479.522 558.626 513.739C554.064 520.837 550.328 525.152 546.666 529.022C543.004 532.892 539.378 536.356 535.089 541.699L535.711 542.455C552.842 533.478 570.683 525.469 584.134 511.12C594.364 502.178 602.581 493.883 609.993 486.16C617.415 478.427 624.015 471.282 631.035 464.621C645.054 451.319 660.729 439.959 687.782 429.897L688.93 429.47L687.812 428.972C664.904 418.758 652.309 413.515 633.44 395.864C630.709 393.31 627.196 389.789 623.744 386.355C620.299 382.926 616.91 379.581 614.443 377.398L613.897 376.915L613.644 377.599ZM847.258 422.96C843.869 393.265 817.022 371.991 787.396 375.53C757.972 379.044 736.916 405.721 740.282 435.214C743.648 464.708 770.171 485.933 799.627 482.702C829.286 479.45 850.646 452.655 847.258 422.96ZM630.409 324.978C626.391 338.53 621.893 353.787 616.778 366.943L616.663 367.239L616.882 367.47C628.288 379.445 641.588 392.638 654.845 402.683C657.724 404.864 661.123 406.927 664.546 408.919C667.979 410.917 671.428 412.838 674.45 414.754L674.49 414.78L674.535 414.797C678.624 416.396 682.353 417.885 686.365 419.691L686.925 418.883C663.899 395.76 651.38 371.298 639.61 341.288C639.032 339.813 637.576 336.048 635.957 332.483C635.148 330.702 634.293 328.96 633.482 327.573C633.076 326.88 632.676 326.267 632.293 325.778C631.918 325.3 631.527 324.899 631.129 324.681L630.586 324.383L630.409 324.978Z" stroke="var(--stroke-0, white)" stroke-opacity="0.2"/>
<path id="Vector_3" d="M443.574 0.5C446.162 1.75496 448.709 2.74885 451.219 3.71387C453.768 4.69397 456.274 5.64432 458.777 6.81641C476.008 14.8827 487.78 26.3563 493.498 44.7305C495.496 51.149 497.09 55.5215 498.045 62.4463L498.106 62.8848L498.548 62.8779C562.494 61.9451 595.512 106.364 636.92 147.353C657.061 167.289 675.016 175.253 701.227 181.935C695.809 183.15 688.715 184.826 683.834 185.524L683.366 185.265L683.363 185.263L682.596 184.857C680.869 183.984 679.581 183.596 678.347 183.274C676.948 182.91 675.664 182.64 673.848 181.84C664.959 177.92 654.6 172.691 646.805 166.992C637.64 160.292 629.231 151.398 621.09 143.417C590.458 113.388 576.569 92.6826 535.42 76.2715L534.896 77.1035C570.188 109.786 584.785 154.879 599.538 199.669C603.093 210.463 608.607 226.884 610.993 237.468C609.224 239.384 607.373 241.562 605.373 243.012C600.52 230.578 595.796 215.559 590.611 199.577C585.347 183.351 579.609 166.144 572.785 149.702C559.149 116.844 541.125 86.9094 513.732 73.9775C512.288 73.2959 509.598 72.3909 506.888 71.5576C504.166 70.7209 501.386 69.945 499.741 69.5234L499.268 69.4023L499.136 69.873C492.638 93.0454 487.377 112.233 465.082 124.09C441.057 136.866 417.512 136.034 399.023 125.697C380.524 115.356 367.027 95.4679 363.186 70.0254L363.11 69.5273L362.612 69.6064C345.788 72.2771 334.082 76.2248 324.03 82.8955C313.986 89.5611 305.631 98.9209 295.471 112.339C286.235 124.535 277.537 140.507 268.864 158.049C264.527 166.822 260.193 175.996 255.8 185.293C251.406 194.591 246.953 204.014 242.375 213.292C233.218 231.85 223.569 249.812 212.915 265.019C202.283 280.194 190.671 292.59 177.581 300.1C171.343 300.813 166.543 300.543 160.568 300.181C164.038 298.81 167.447 296.665 170.471 294.932C185.941 286.067 198.747 272.05 210.072 255.219C221.398 238.388 231.263 218.711 240.838 198.499C250.418 178.275 259.704 157.523 269.886 138.487C280.067 119.454 291.125 102.176 304.227 88.9092C320.405 72.5285 340.348 63.0002 363.45 62.8301L363.926 62.8262L363.946 62.3506C364.824 41.3474 379.658 18.5613 398.122 8.77539C401.171 7.15987 404.213 6.11107 407.297 4.93945C410.327 3.78825 413.377 2.52401 416.403 0.5H443.574ZM484.229 59.5947C480.183 29.9395 452.765 9.23409 423.11 13.4375C393.683 17.6088 373.154 44.7482 377.168 74.1758C381.182 103.604 408.231 124.264 437.702 120.414C467.401 116.533 488.274 89.2501 484.229 59.5947Z" stroke="var(--stroke-0, white)" stroke-opacity="0.2"/>
<path id="Vector_4" d="M1064.41 314.272C1061.86 314.861 1059.53 315.549 1057.21 316.212C1054.36 317.027 1051.52 317.803 1048.29 318.325C1048.68 316.629 1048.91 315.818 1049.33 315.099C1049.8 314.299 1050.49 313.608 1051.96 312.021L1064.41 314.272Z" stroke="var(--stroke-0, white)" stroke-opacity="0.2"/>
</g>
</svg>
