<svg width="24" height="22" viewBox="0 0 24 22" fill="none" xmlns="http://www.w3.org/2000/svg">
<path d="M16.8889 6H21.7778C22.4528 6 23 6.55964 23 7.25V21L18.9263 17.5387C18.7069 17.3523 18.4298 17.25 18.1445 17.25H8.33333C7.65832 17.25 7.11111 16.6904 7.11111 16V12.25M16.8889 6V2.25C16.8889 1.55964 16.3417 1 15.6667 1H2.22222C1.54721 1 1 1.55964 1 2.25V16.0004L5.07368 12.5385C5.29312 12.3521 5.57018 12.25 5.85547 12.25H7.11111M16.8889 6V11C16.8889 11.6904 16.3417 12.25 15.6667 12.25H7.11111" stroke="#475569" stroke-width="2" stroke-linecap="round" stroke-linejoin="round"/>
</svg>
