<svg width="24" height="24" viewBox="0 0 24 24" fill="none" xmlns="http://www.w3.org/2000/svg">
<path d="M12 7.17188C13.28 7.17336 14.507 7.68276 15.4121 8.58789C16.3172 9.49302 16.8266 10.72 16.8281 12L16.8145 12.3564C16.7531 13.1858 16.4789 13.9878 16.0146 14.6826C15.4841 15.4766 14.7298 16.0955 13.8477 16.4609C12.9655 16.8263 11.9941 16.9216 11.0576 16.7354C10.1212 16.549 9.26105 16.0892 8.58594 15.4141C7.91082 14.7389 7.451 13.8788 7.26465 12.9424C7.07836 12.0059 7.17367 11.0345 7.53906 10.1523C7.90448 9.27015 8.52344 8.51587 9.31738 7.98535C10.0122 7.52108 10.8142 7.24695 11.6436 7.18555L12 7.17188ZM13.0225 9.53125C12.5343 9.32906 11.9968 9.2768 11.4785 9.37988C10.9603 9.48302 10.4839 9.73676 10.1104 10.1104C9.73676 10.4839 9.48301 10.9603 9.37988 11.4785C9.2768 11.9968 9.32906 12.5343 9.53125 13.0225C9.73348 13.5107 10.0762 13.9281 10.5156 14.2217C10.955 14.5152 11.4716 14.6719 12 14.6719C12.7086 14.6719 13.3886 14.3907 13.8896 13.8896C14.3907 13.3886 14.6719 12.7086 14.6719 12C14.6719 11.4716 14.5152 10.955 14.2217 10.5156C13.9281 10.0762 13.5107 9.73348 13.0225 9.53125ZM4.53027 16.2393L4.50586 16.2256L1.89844 14.7402C1.76386 14.6639 1.64731 14.5589 1.55664 14.4336C1.46595 14.3082 1.40237 14.1645 1.37207 14.0127C1.1085 12.6847 1.10844 11.3173 1.37207 9.98926C1.40214 9.8374 1.46514 9.69394 1.55566 9.56836C1.64637 9.44262 1.76359 9.33726 1.89844 9.26074L4.5 7.7793L4.52344 7.76562V7.73828L4.53613 4.7998C4.53688 4.64424 4.57199 4.49063 4.6377 4.34961C4.70345 4.20853 4.79924 4.08307 4.91797 3.98242C5.96289 3.09621 7.1665 2.41617 8.46484 1.97852C8.60765 1.93035 8.75911 1.91283 8.90918 1.92676C9.05919 1.94071 9.20448 1.98597 9.33594 2.05957L11.9775 3.53516L12 3.54785L12.0225 3.53516L14.6641 2.06055C14.7953 1.98739 14.9402 1.94252 15.0898 1.92871C15.2396 1.91495 15.3907 1.93244 15.5332 1.98047C16.8313 2.41637 18.0357 3.09404 19.0811 3.97852C19.2002 4.07929 19.2954 4.20525 19.3613 4.34668C19.4272 4.48802 19.4623 4.64192 19.4629 4.79785L19.4727 7.7334V7.76074L19.4961 7.77441L22.1016 9.25977C22.2364 9.33599 22.3535 9.44098 22.4443 9.56641C22.5351 9.69181 22.5975 9.83549 22.6279 9.9873C22.8922 11.3152 22.8929 12.6826 22.6299 14.0107C22.5998 14.1625 22.5377 14.3061 22.4473 14.4316C22.3566 14.5574 22.2393 14.6627 22.1045 14.7393L19.4971 16.2207L19.4736 16.2344V16.2617L19.4609 19.2002C19.4602 19.3558 19.4251 19.5094 19.3594 19.6504C19.2936 19.7914 19.1987 19.917 19.0801 20.0176C18.0351 20.9039 16.8307 21.5838 15.5322 22.0215C15.3895 22.0696 15.2379 22.0872 15.0879 22.0732C14.9379 22.0593 14.7926 22.014 14.6611 21.9404L12.0225 20.4648L12 20.4521L11.9775 20.4648L9.33887 21.9395C9.20764 22.0126 9.06269 22.0575 8.91309 22.0713C8.76341 22.0851 8.61216 22.0675 8.46973 22.0195C7.17163 21.5836 5.96724 20.9059 4.92188 20.0215C4.80275 19.9207 4.70753 19.7947 4.6416 19.6533C4.57574 19.512 4.54065 19.3581 4.54004 19.2021L4.53027 16.2666V16.2393ZM17.3076 5.32031L17.2891 5.30664C16.6774 4.84954 16.0083 4.47473 15.2988 4.19238L15.2783 4.18359L15.2588 4.19434L12.71 5.61914C12.5415 5.71236 12.3507 5.75846 12.1582 5.75391H11.834C11.6409 5.75906 11.4497 5.71265 11.2812 5.61816L8.73633 4.19336L8.7168 4.18262L8.69531 4.19141C7.98724 4.47398 7.31984 4.84918 6.70996 5.30664L6.69141 5.32031V5.34375L6.68066 8.18652C6.67991 8.33702 6.64794 8.48569 6.58691 8.62207L6.5166 8.75391C6.46132 8.84291 6.40664 8.93166 6.35547 9.02637C6.25939 9.19822 6.11846 9.34124 5.94727 9.43848L3.42676 10.8711L3.40625 10.8818L3.40332 10.9053C3.30479 11.6324 3.30479 12.3696 3.40332 13.0967L3.40625 13.1191L3.42676 13.1309L5.94824 14.5723H5.94922C6.11988 14.6688 6.26071 14.8103 6.35645 14.9814C6.40744 15.073 6.46211 15.1646 6.5166 15.2529L6.51758 15.2539C6.62403 15.424 6.68078 15.6206 6.68164 15.8213L6.69141 18.6562L6.69238 18.6797L6.71094 18.6934C7.32262 19.1505 7.99168 19.5253 8.70117 19.8076L8.72168 19.8164L8.74121 19.8057L11.29 18.3838C11.4585 18.2905 11.6493 18.2435 11.8418 18.248H12.1924C12.3767 18.2481 12.558 18.2957 12.7188 18.3857L15.2637 19.8096L15.2832 19.8213L15.3047 19.8125C16.013 19.5288 16.6803 19.1521 17.29 18.6934L17.3086 18.6797V18.6562L17.3223 15.8135C17.323 15.663 17.355 15.5143 17.416 15.3779L17.4863 15.2461L17.6475 14.9736C17.7432 14.8015 17.8843 14.6587 18.0557 14.5615L20.5762 13.1289L20.5957 13.1182L20.5996 13.0947C20.6975 12.3662 20.6965 11.6276 20.5967 10.8994L20.5938 10.877L20.5732 10.8652L18.0518 9.42773H18.0508C17.8801 9.33122 17.7393 9.18965 17.6436 9.01855C17.5926 8.92696 17.5379 8.83539 17.4834 8.74707L17.4824 8.74609C17.376 8.57597 17.3192 8.37939 17.3184 8.17871L17.3086 5.34375L17.3076 5.32031Z" fill="#475569" stroke="#475569" stroke-width="0.09375"/>
</svg>
