<svg width="24" height="24" viewBox="0 0 24 24" fill="none" xmlns="http://www.w3.org/2000/svg">
<path d="M8.99976 19.9219H14.9998C15.2856 19.9219 15.5603 20.0352 15.7625 20.2373C15.9646 20.4395 16.0779 20.7141 16.0779 21C16.0779 21.2859 15.9646 21.5605 15.7625 21.7627C15.5603 21.9648 15.2856 22.0781 14.9998 22.0781H8.99976C8.71408 22.0781 8.44013 21.9646 8.23804 21.7627C8.03585 21.5605 7.92163 21.2859 7.92163 21C7.92163 20.7141 8.03585 20.4395 8.23804 20.2373C8.44013 20.0354 8.71408 19.9219 8.99976 19.9219ZM11.9998 1.92188C14.0758 1.92188 16.0669 2.74687 17.5349 4.21484C19.003 5.6829 19.8279 7.67385 19.8279 9.75C19.8279 12.1517 20.2614 14.1696 21.0808 15.5791C21.242 15.8578 21.3265 16.1742 21.3269 16.4961C21.3272 16.8181 21.2425 17.135 21.0818 17.4141C20.9231 17.6932 20.6928 17.9253 20.4148 18.0859C20.137 18.2464 19.8215 18.33 19.5007 18.3281H4.49976C4.17822 18.3306 3.86131 18.2476 3.58276 18.0869C3.30431 17.9263 3.07365 17.6935 2.91479 17.4141C2.75493 17.1346 2.6715 16.818 2.67261 16.4961C2.67373 16.1741 2.75972 15.8575 2.92163 15.5791C3.74094 14.1696 4.17163 12.1525 4.17163 9.75C4.17163 7.67392 4.99663 5.68289 6.4646 4.21484C7.93259 2.74685 9.92371 1.92195 11.9998 1.92188ZM11.9998 4.07812C10.4956 4.0782 9.05263 4.67564 7.98901 5.73926C6.92542 6.80293 6.32788 8.24579 6.32788 9.75C6.32788 12.2896 5.90837 14.4253 5.08276 16.1045L5.04956 16.1719H18.95L18.9167 16.1045C18.0911 14.4253 17.6716 12.2887 17.6716 9.75C17.6716 8.24573 17.0742 6.80294 16.0105 5.73926C14.9468 4.67566 13.504 4.07812 11.9998 4.07812Z" fill="#475569" stroke="#475569" stroke-width="0.09375"/>
</svg>
