<svg width="44" height="52" viewBox="0 0 44 52" fill="none" xmlns="http://www.w3.org/2000/svg">
<path d="M43.415 14.585L29.415 0.585001C29.2291 0.399332 29.0085 0.252104 28.7657 0.151728C28.5229 0.0513516 28.2627 -0.000205972 28 6.18397e-07H4C2.93913 6.18397e-07 1.92172 0.421428 1.17157 1.17157C0.421427 1.92172 0 2.93913 0 4V48C0 49.0609 0.421427 50.0783 1.17157 50.8284C1.92172 51.5786 2.93913 52 4 52H40C41.0609 52 42.0783 51.5786 42.8284 50.8284C43.5786 50.0783 44 49.0609 44 48V16C44.0002 15.7373 43.9487 15.4771 43.8483 15.2343C43.7479 14.9915 43.6007 14.7709 43.415 14.585ZM17.415 36.585C17.6008 36.7708 17.7482 36.9914 17.8488 37.2342C17.9494 37.477 18.0011 37.7372 18.0011 38C18.0011 38.2628 17.9494 38.523 17.8488 38.7658C17.7482 39.0086 17.6008 39.2292 17.415 39.415C17.2292 39.6008 17.0086 39.7482 16.7658 39.8488C16.523 39.9494 16.2628 40.0011 16 40.0011C15.7372 40.0011 15.477 39.9494 15.2342 39.8488C14.9914 39.7482 14.7708 39.6008 14.585 39.415L8.585 33.415C8.39905 33.2293 8.25153 33.0087 8.15088 32.7659C8.05023 32.5231 7.99843 32.2628 7.99843 32C7.99843 31.7372 8.05023 31.4769 8.15088 31.2341C8.25153 30.9913 8.39905 30.7707 8.585 30.585L14.585 24.585C14.9603 24.2097 15.4693 23.9989 16 23.9989C16.5307 23.9989 17.0397 24.2097 17.415 24.585C17.7903 24.9603 18.0011 25.4693 18.0011 26C18.0011 26.5307 17.7903 27.0397 17.415 27.415L12.8275 32L17.415 36.585ZM35.415 33.415L29.415 39.415C29.0397 39.7903 28.5307 40.0011 28 40.0011C27.4693 40.0011 26.9603 39.7903 26.585 39.415C26.2097 39.0397 25.9989 38.5307 25.9989 38C25.9989 37.4693 26.2097 36.9603 26.585 36.585L31.1725 32L26.585 27.415C26.2097 27.0397 25.9989 26.5307 25.9989 26C25.9989 25.4693 26.2097 24.9603 26.585 24.585C26.9603 24.2097 27.4693 23.9989 28 23.9989C28.5307 23.9989 29.0397 24.2097 29.415 24.585L35.415 30.585C35.601 30.7707 35.7485 30.9913 35.8491 31.2341C35.9498 31.4769 36.0016 31.7372 36.0016 32C36.0016 32.2628 35.9498 32.5231 35.8491 32.7659C35.7485 33.0087 35.601 33.2293 35.415 33.415ZM28 16V5L39 16H28Z" fill="#94A3B8"/>
</svg>
