<svg width="122" height="127" viewBox="0 0 122 127" fill="none" xmlns="http://www.w3.org/2000/svg">
<g clip-path="url(#clip0_132_1445)">
<path d="M12.5226 83.3743L34.8742 83.425L39.7937 33.2566L13.4193 32.9732L12.5226 83.3743Z" fill="white"/>
<path d="M68.6174 24.2528L46.4904 2.12577C46.1966 1.83232 45.8479 1.59962 45.4642 1.44098C45.0805 1.28233 44.6692 1.20085 44.254 1.20117H6.322C4.6453 1.20117 3.03728 1.86724 1.85167 3.05284C0.666065 4.23845 0 5.84647 0 7.52317V77.0652C0 78.742 0.666065 80.3499 1.85167 81.5355C3.03728 82.7212 4.6453 83.3872 6.322 83.3872H20.5465C20.9657 83.3872 21.3677 83.2206 21.6641 82.9243C21.9604 82.6279 22.127 82.2258 22.127 81.8067V73.9042H19.0727C18.2556 73.9172 17.4639 73.6199 16.8575 73.0721C16.251 72.5243 15.8749 71.7669 15.805 70.9526C15.7763 70.5202 15.8368 70.0865 15.9828 69.6786C16.1287 69.2705 16.3569 68.8969 16.6534 68.5808C16.9499 68.2647 17.3081 68.013 17.7059 67.8412C18.1038 67.6694 18.5326 67.5812 18.966 67.5822H22.127V61.2602H19.0727C18.2556 61.2732 17.4639 60.9759 16.8575 60.4281C16.251 59.8803 15.8749 59.1229 15.805 58.3086C15.7763 57.8762 15.8368 57.4425 15.9828 57.0346C16.1287 56.6265 16.3569 56.2528 16.6534 55.9368C16.9499 55.6207 17.3081 55.369 17.7059 55.1972C18.1038 55.0254 18.5326 54.9372 18.966 54.9382H22.127V48.6162H19.0727C18.2556 48.6291 17.4639 48.3319 16.8575 47.784C16.251 47.2363 15.8749 46.4789 15.805 45.6646C15.7763 45.2322 15.8368 44.7985 15.9828 44.3906C16.1287 43.9825 16.3569 43.6088 16.6534 43.2927C16.9499 42.9766 17.3081 42.725 17.7059 42.5532C18.1038 42.3814 18.5326 42.2932 18.966 42.2942H22.127V39.2399C22.1169 38.4243 22.4156 37.6352 22.9629 37.0306C23.5104 36.4261 24.2661 36.0507 25.0786 35.9801C25.511 35.9513 25.9447 36.0119 26.3526 36.1579C26.7607 36.3038 27.1343 36.532 27.4504 36.8285C27.7665 37.125 28.0182 37.4831 28.19 37.881C28.3618 38.2789 28.45 38.7077 28.449 39.1411V42.3021H31.5033C32.319 42.2912 33.1088 42.5894 33.7135 43.1369C34.3184 43.6846 34.6932 44.4408 34.7631 45.2537C34.7919 45.6861 34.7313 46.1198 34.5853 46.5277C34.4394 46.9358 34.2112 47.3094 33.9147 47.6255C33.6182 47.9416 33.26 48.1932 32.8622 48.365C32.4643 48.5368 32.0355 48.625 31.6021 48.6241H28.4411V54.9461H31.4954C32.3111 54.9352 33.1009 55.2334 33.7056 55.7809C34.3104 56.3286 34.6853 57.0848 34.7552 57.8977C34.784 58.3301 34.7234 58.7638 34.5774 59.1717C34.4315 59.5798 34.2033 59.9534 33.9068 60.2695C33.6103 60.5856 33.2521 60.8372 32.8543 61.009C32.4564 61.1808 32.0276 61.269 31.5942 61.2681H28.4332V67.5901H31.4875C32.3032 67.5792 33.093 67.8774 33.6977 68.4249C34.3025 68.9726 34.6774 69.7288 34.7473 70.5417C34.7761 70.9741 34.7155 71.4078 34.5695 71.8157C34.4236 72.2238 34.1954 72.5974 33.8989 72.9135C33.6024 73.2296 33.2442 73.4812 32.8464 73.6531C32.4485 73.8249 32.0197 73.913 31.5863 73.9121H28.4253V81.8146C28.4253 82.2337 28.5919 82.6358 28.8882 82.9322C29.1846 83.2285 29.5867 83.3951 30.0058 83.3951H63.1963C64.8731 83.3951 66.4811 82.7291 67.6666 81.5434C68.8523 80.3578 69.5183 78.7499 69.5183 77.0731V26.4892C69.5253 25.654 69.2014 24.8499 68.6174 24.2528ZM44.254 26.4892V9.10367L61.6395 26.4892H44.254Z" fill="#94A3B8"/>
</g>
<g filter="url(#filter0_d_132_1445)">
<g clip-path="url(#clip1_132_1445)">
<rect x="37.9321" y="43.8747" width="41.093" height="34.771" fill="white"/>
<path d="M93.5657 35.1586L74.7335 10.1675C74.4834 9.836 74.1705 9.55705 73.8126 9.34654C73.4547 9.13604 73.0588 8.99811 72.6476 8.94065L35.0847 3.66153C33.4243 3.42818 31.7392 3.86397 30.4002 4.87303C29.0611 5.8821 28.1777 7.38177 27.9444 9.04215L18.266 77.9074C18.0326 79.5678 18.4684 81.2529 19.4775 82.5919C20.4865 83.931 21.9862 84.8144 23.6466 85.0477L79.9909 92.9664C81.6513 93.1998 83.3364 92.764 84.6754 91.7549C86.0145 90.7459 86.8979 89.2462 87.1312 87.5858L94.1701 37.502C94.2281 37.0908 94.2048 36.6723 94.101 36.2702C93.9973 35.8681 93.8155 35.4904 93.5657 35.1586ZM67.4192 68.8551L42.3773 65.3357C41.5471 65.219 40.7973 64.7774 40.2927 64.1078C39.7882 63.4382 39.5703 62.5957 39.687 61.7655C39.8036 60.9354 40.2453 60.1856 40.9149 59.681C41.5845 59.1764 42.427 58.9585 43.2571 59.0752L68.299 62.5946C69.1292 62.7113 69.879 63.153 70.3836 63.8225C70.8882 64.4921 71.106 65.3346 70.9894 66.1648C70.8727 66.9949 70.431 67.7448 69.7614 68.2493C69.0919 68.7539 68.2493 68.9718 67.4192 68.8551ZM69.1789 56.3341L44.137 52.8147C43.3069 52.6981 42.557 52.2564 42.0525 51.5868C41.5479 50.9172 41.33 50.0747 41.4467 49.2446C41.5633 48.4144 42.005 47.6646 42.6746 47.16C43.3442 46.6555 44.1867 46.4376 45.0168 46.5543L70.0588 50.0737C70.8889 50.1903 71.6387 50.632 72.1433 51.3016C72.6479 51.9712 72.8657 52.8137 72.7491 53.6438C72.6324 54.474 72.1907 55.2238 71.5211 55.7284C70.8516 56.2329 70.009 56.4508 69.1789 56.3341ZM69.1281 33.9826L71.5477 16.7662L86.3445 36.4021L69.1281 33.9826Z" fill="#94A3B8"/>
</g>
</g>
<g filter="url(#filter1_d_132_1445)">
<g clip-path="url(#clip2_132_1445)">
<path d="M47.4146 73.1142L66.3806 62.0507C68.2245 61.7872 72.0704 61.2601 72.7026 61.2601C73.4928 61.2601 75.0733 66.0016 75.0733 66.7918C75.0733 67.424 71.3855 69.1626 69.5416 69.9528L64.0098 75.4846L67.9611 87.3383L57.6878 91.2896L47.4146 73.1142Z" fill="white"/>
<path d="M97.8133 87.1572L88.623 67.216C87.2637 65.9425 84.4157 63.3048 83.8978 62.9422C83.2505 62.489 79.2362 65.4664 78.7829 66.1138C78.4203 66.6316 80.444 70.171 81.5012 71.876L82.8597 79.5802L72.824 87.0239L78.973 96.1531L97.8133 87.1572Z" fill="white"/>
<path d="M113.869 61.2393L98.698 33.8704C98.4965 33.5074 98.2255 33.1876 97.9003 32.9293C97.5752 32.6711 97.2023 32.4794 96.8031 32.3652L60.3405 21.9098C58.7288 21.4476 56.9995 21.6446 55.533 22.4575C54.0665 23.2704 52.983 24.6325 52.5208 26.2443L33.3525 93.0924C32.8903 94.7042 33.0873 96.4335 33.9002 97.8999C34.7131 99.3664 36.0752 100.45 37.687 100.912L92.3809 116.595C93.9927 117.057 95.722 116.86 97.1884 116.047C98.6549 115.235 99.7384 113.873 100.201 112.261L114.141 63.6439C114.256 63.2449 114.291 62.8272 114.244 62.4146C114.198 62.0019 114.07 61.6027 113.869 61.2393ZM64.7835 83.3366C64.9849 83.6998 65.1127 84.0992 65.1598 84.5119C65.2068 84.9246 65.172 85.3424 65.0575 85.7417C64.943 86.141 64.7511 86.5138 64.4925 86.8388C64.2339 87.1639 63.9139 87.4348 63.5506 87.6361C63.1874 87.8375 62.7881 87.9653 62.3754 88.0124C61.9626 88.0594 61.5448 88.0246 61.1455 87.9101C60.7463 87.7957 60.3735 87.6038 60.0484 87.3451C59.7234 87.0865 59.4524 86.7665 59.2511 86.4033L52.7493 74.6737C52.5477 74.3106 52.4197 73.9112 52.3726 73.4985C52.3254 73.0857 52.3601 72.6677 52.4746 72.2684C52.5891 71.8692 52.7812 71.4963 53.0399 71.1712C53.2986 70.8462 53.6188 70.5753 53.9822 70.3742L65.7117 63.8724C66.4454 63.4657 67.3105 63.3672 68.1168 63.5984C68.9231 63.8296 69.6046 64.3716 70.0113 65.1053C70.418 65.839 70.5165 66.7041 70.2853 67.5104C70.0541 68.3167 69.5121 68.9982 68.7784 69.4048L59.8113 74.3722L64.7835 83.3366ZM93.5115 86.3621L81.7819 92.8639C81.0483 93.2706 80.1831 93.3691 79.3768 93.1379C78.5706 92.9067 77.8891 92.3647 77.4824 91.631C77.0757 90.8973 76.9772 90.0322 77.2084 89.2259C77.4396 88.4196 77.9816 87.7381 78.7153 87.3315L87.6824 82.3641L82.7101 73.3997C82.3034 72.666 82.2049 71.8009 82.4361 70.9946C82.6673 70.1883 83.2093 69.5068 83.943 69.1002C84.6767 68.6935 85.5418 68.595 86.3481 68.8262C87.1544 69.0573 87.8359 69.5994 88.2426 70.333L94.7443 82.0626C94.946 82.4257 95.074 82.8251 95.1211 83.2378C95.1683 83.6506 95.1336 84.0686 95.0191 84.4679C94.9046 84.8671 94.7125 85.24 94.4537 85.5651C94.1951 85.8901 93.8749 86.161 93.5115 86.3621ZM89.8328 56.6736L94.6249 39.9616L106.545 61.4657L89.8328 56.6736Z" fill="#94A3B8"/>
</g>
</g>
<defs>
<filter id="filter0_d_132_1445" x="5.78623" y="-0.818323" width="93.5032" height="104.265" filterUnits="userSpaceOnUse" color-interpolation-filters="sRGB">
<feFlood flood-opacity="0" result="BackgroundImageFix"/>
<feColorMatrix in="SourceAlpha" type="matrix" values="0 0 0 0 0 0 0 0 0 0 0 0 0 0 0 0 0 0 127 0" result="hardAlpha"/>
<feOffset dx="-5" dy="3"/>
<feGaussianBlur stdDeviation="3.3"/>
<feComposite in2="hardAlpha" operator="out"/>
<feColorMatrix type="matrix" values="0 0 0 0 0 0 0 0 0 0 0 0 0 0 0 0 0 0 0.25 0"/>
<feBlend mode="normal" in2="BackgroundImageFix" result="effect1_dropShadow_132_1445"/>
<feBlend mode="normal" in="SourceGraphic" in2="effect1_dropShadow_132_1445" result="shape"/>
</filter>
<filter id="filter1_d_132_1445" x="20.0099" y="16.5672" width="102.702" height="111.371" filterUnits="userSpaceOnUse" color-interpolation-filters="sRGB">
<feFlood flood-opacity="0" result="BackgroundImageFix"/>
<feColorMatrix in="SourceAlpha" type="matrix" values="0 0 0 0 0 0 0 0 0 0 0 0 0 0 0 0 0 0 127 0" result="hardAlpha"/>
<feOffset dx="-5" dy="3"/>
<feGaussianBlur stdDeviation="3.3"/>
<feComposite in2="hardAlpha" operator="out"/>
<feColorMatrix type="matrix" values="0 0 0 0 0 0 0 0 0 0 0 0 0 0 0 0 0 0 0.25 0"/>
<feBlend mode="normal" in2="BackgroundImageFix" result="effect1_dropShadow_132_1445"/>
<feBlend mode="normal" in="SourceGraphic" in2="effect1_dropShadow_132_1445" result="shape"/>
</filter>
<clipPath id="clip0_132_1445">
<rect y="1.20117" width="69.542" height="82.186" rx="10" fill="white"/>
</clipPath>
<clipPath id="clip1_132_1445">
<rect x="28.8242" y="2.78168" width="69.542" height="82.186" rx="10" transform="rotate(8 28.8242 2.78168)" fill="white"/>
</clipPath>
<clipPath id="clip2_132_1445">
<rect x="54.2634" y="20.1672" width="69.542" height="82.186" rx="10" transform="rotate(16 54.2634 20.1672)" fill="white"/>
</clipPath>
</defs>
</svg>
