<svg width="44" height="52" viewBox="0 0 44 52" fill="none" xmlns="http://www.w3.org/2000/svg">
<path d="M43.415 14.585L29.415 0.585001C29.2291 0.399332 29.0085 0.252104 28.7657 0.151728C28.5229 0.0513516 28.2627 -0.000205972 28 6.18397e-07H4C2.93913 6.18397e-07 1.92172 0.421428 1.17157 1.17157C0.421427 1.92172 0 2.93913 0 4V48C0 49.0609 0.421427 50.0783 1.17157 50.8284C1.92172 51.5786 2.93913 52 4 52H40C41.0609 52 42.0783 51.5786 42.8284 50.8284C43.5786 50.0783 44 49.0609 44 48V16C44.0002 15.7373 43.9487 15.4771 43.8483 15.2343C43.7479 14.9915 43.6007 14.7709 43.415 14.585ZM30 38H14C13.4696 38 12.9609 37.7893 12.5858 37.4142C12.2107 37.0391 12 36.5304 12 36C12 35.4696 12.2107 34.9609 12.5858 34.5858C12.9609 34.2107 13.4696 34 14 34H30C30.5304 34 31.0391 34.2107 31.4142 34.5858C31.7893 34.9609 32 35.4696 32 36C32 36.5304 31.7893 37.0391 31.4142 37.4142C31.0391 37.7893 30.5304 38 30 38ZM30 30H14C13.4696 30 12.9609 29.7893 12.5858 29.4142C12.2107 29.0391 12 28.5304 12 28C12 27.4696 12.2107 26.9609 12.5858 26.5858C12.9609 26.2107 13.4696 26 14 26H30C30.5304 26 31.0391 26.2107 31.4142 26.5858C31.7893 26.9609 32 27.4696 32 28C32 28.5304 31.7893 29.0391 31.4142 29.4142C31.0391 29.7893 30.5304 30 30 30ZM28 16V5L39 16H28Z" fill="#94A3B8"/>
</svg>
