<svg width="46" height="48" viewBox="0 0 46 48" fill="none" xmlns="http://www.w3.org/2000/svg">
<path d="M1.00026 24H43.0003C43.2655 24 43.5198 23.8946 43.7074 23.7071C43.8949 23.5196 44.0003 23.2652 44.0003 23V16C44.0005 15.7373 43.9489 15.4771 43.8485 15.2343C43.7482 14.9915 43.6009 14.7709 43.4153 14.585L29.4153 0.585001C29.2294 0.399332 29.0088 0.252104 28.766 0.151728C28.5232 0.0513516 28.263 -0.000205972 28.0003 6.18397e-07H4.00026C2.93939 6.18397e-07 1.92198 0.421428 1.17183 1.17157C0.421686 1.92172 0.000258678 2.93913 0.000258678 4V23C0.000258678 23.2652 0.105616 23.5196 0.293152 23.7071C0.480688 23.8946 0.735042 24 1.00026 24ZM28.0003 5L39.0003 16H28.0003V5ZM46.0003 32.1325C45.9555 32.6466 45.7181 33.1247 45.3356 33.4711C44.953 33.8174 44.4537 34.0064 43.9378 34H38.0003V38H41.9328C42.4489 37.9931 42.9485 38.1818 43.3312 38.5283C43.7138 38.8747 43.9511 39.3532 43.9953 39.8675C44.0134 40.1411 43.9751 40.4155 43.8828 40.6736C43.7905 40.9318 43.646 41.1682 43.4585 41.3682C43.2709 41.5682 43.0442 41.7274 42.7925 41.8361C42.5408 41.9448 42.2694 42.0006 41.9953 42H38.0003V45.9325C38.0072 46.4486 37.8185 46.9483 37.472 47.3309C37.1255 47.7136 36.6471 47.9508 36.1328 47.995C35.8592 48.0132 35.5848 47.9749 35.3266 47.8825C35.0685 47.7902 34.8321 47.6458 34.6321 47.4582C34.4321 47.2706 34.2728 47.044 34.1641 46.7923C34.0554 46.5405 33.9997 46.2692 34.0003 45.995V32C34.0003 31.4696 34.211 30.9609 34.586 30.5858C34.9611 30.2107 35.4698 30 36.0003 30H44.0003C44.2744 29.9994 44.5458 30.0552 44.7975 30.1639C45.0492 30.2726 45.2759 30.4318 45.4635 30.6318C45.651 30.8318 45.7955 31.0682 45.8878 31.3264C45.9801 31.5845 46.0184 31.8589 46.0003 32.1325ZM6.00026 30H2.00026C1.46983 30 0.961118 30.2107 0.586046 30.5858C0.210973 30.9609 0.000258678 31.4696 0.000258678 32V45.9325C-0.00796586 46.4495 0.180197 46.9504 0.526785 47.3341C0.873374 47.7178 1.35259 47.9558 1.86776 48C2.14133 48.0182 2.41572 47.9799 2.67388 47.8875C2.93203 47.7952 3.16845 47.6508 3.36843 47.4632C3.56842 47.2756 3.7277 47.049 3.83639 46.7973C3.94508 46.5455 4.00086 46.2742 4.00026 46V44H5.85026C9.66026 44 12.8853 41.02 12.9978 37.2125C13.0262 36.2757 12.8663 35.3428 12.5274 34.469C12.1885 33.5952 11.6776 32.7984 11.025 32.1257C10.3724 31.4531 9.59142 30.9183 8.72828 30.5532C7.86514 30.188 6.93746 29.9999 6.00026 30ZM5.91276 40H4.00026V34H6.00026C6.41986 33.998 6.83521 34.0841 7.21947 34.2527C7.60373 34.4212 7.94835 34.6685 8.23108 34.9786C8.51381 35.2887 8.72835 35.6546 8.86084 36.0527C8.99333 36.4509 9.04083 36.8724 9.00026 37.29C8.91297 38.044 8.54878 38.7388 7.9783 39.2395C7.40783 39.7402 6.67173 40.0112 5.91276 40ZM22.0003 30H18.0003C17.4698 30 16.9611 30.2107 16.586 30.5858C16.211 30.9609 16.0003 31.4696 16.0003 32V46C16.0003 46.5304 16.211 47.0391 16.586 47.4142C16.9611 47.7893 17.4698 48 18.0003 48H21.8303C26.7453 48 30.8828 44.13 30.9978 39.2175C31.0268 38.0176 30.8155 36.8241 30.3764 35.7071C29.9372 34.5901 29.2791 33.5722 28.4407 32.7134C27.6024 31.8545 26.6007 31.172 25.4946 30.706C24.3886 30.24 23.2005 30 22.0003 30ZM21.8778 44H20.0003V34H22.0003C22.6734 33.9995 23.3397 34.1349 23.9592 34.3981C24.5787 34.6614 25.1387 35.047 25.6056 35.5319C26.0725 36.0167 26.4367 36.5909 26.6764 37.2199C26.916 37.8489 27.0262 38.5199 27.0003 39.1925C26.8953 41.8975 24.5853 44 21.8778 44Z" fill="#94A3B8"/>
</svg>
